<?xml version="1.0" encoding="UTF-8"?>
<svg width="80px" height="30px" viewBox="0 0 80 30" version="1.1" xmlns="http://www.w3.org/2000/svg" xmlns:xlink="http://www.w3.org/1999/xlink">
    <!-- Generator: Sketch 56.2 (81672) - https://sketch.com -->
    <title>simplelogo@2x</title>
    <desc>Created with Sketch.</desc>
    <g id="Symbols" stroke="none" stroke-width="1" fill="none" fill-rule="evenodd" opacity="0.3">
        <g id="Tablet-768px/Footer" transform="translate(-278.000000, -574.000000)" fill="#FFFFFF" fill-rule="nonzero">
            <g id="Group-2">
                <g transform="translate(278.000000, 574.000000)">
                    <g id="simplelogo">
                        <path d="M76.9908424,29.8506867 C76.4727472,29.8506867 76.0308424,29.7021152 75.6651281,29.4049724 C75.3070329,29.1002105 75.1279853,28.7078295 75.1279853,28.2278295 C75.1279853,26.7725914 76.4232234,26.0449724 79.0136996,26.0449724 C79.0136996,25.4887819 78.8803662,25.0583057 78.6136996,24.7535438 C78.3470329,24.4487819 77.9546519,24.2964009 77.4365567,24.2964009 C77.0175091,24.2964009 76.3965567,24.4259247 75.5736996,24.6849724 L75.4936996,24.0335438 C76.1336996,23.8278295 76.7965567,23.7249724 77.482271,23.7249724 C78.9603662,23.7249724 79.6994138,24.5402105 79.6994138,26.1706867 L79.6994138,28.2621152 C79.6994138,28.7421152 79.7679853,29.2183057 79.9051281,29.6906867 L79.3108424,29.8164009 L79.0708424,28.8678295 C78.5451281,29.5230676 77.8517948,29.8506867 76.9908424,29.8506867 L76.9908424,29.8506867 Z M75.8136996,28.1135438 C75.8136996,28.471639 75.9241757,28.7573533 76.1451281,28.9706867 C76.3660805,29.1764009 76.6556043,29.2792581 77.0136996,29.2792581 C77.4708424,29.2792581 77.9165567,29.1383057 78.3508424,28.8564009 C78.7927472,28.5668771 79.0136996,28.2164009 79.0136996,27.8049724 L79.0136996,26.6164009 C76.8803662,26.6164009 75.8136996,27.1154486 75.8136996,28.1135438 Z M73.7926278,29.6906867 L73.1069135,29.6906867 L73.1069135,23.8506867 L73.7926278,23.8506867 L73.7926278,29.6906867 Z M73.4269135,21.5306867 C73.5869135,21.5306867 73.7164373,21.58402 73.815485,21.6906867 C73.9221516,21.7897343 73.975485,21.9192581 73.975485,22.0792581 C73.975485,22.2392581 73.9221516,22.3687819 73.815485,22.4678295 C73.7164373,22.5592581 73.5869135,22.6049724 73.4269135,22.6049724 C73.2669135,22.6049724 73.1373897,22.5592581 73.0383421,22.4678295 C72.9469135,22.3687819 72.9011992,22.2392581 72.9011992,22.0792581 C72.9011992,21.9192581 72.9469135,21.7897343 73.0383421,21.6906867 C73.1373897,21.58402 73.2669135,21.5306867 73.4269135,21.5306867 Z M65.8095929,26.6964009 C65.8095929,25.8430676 66.0457834,25.1344962 66.5181643,24.5706867 C66.9981643,24.0068771 67.6381643,23.7249724 68.4381643,23.7249724 C69.4057834,23.7249724 70.1410215,24.1364009 70.6438786,24.9592581 L70.6438786,21.0049724 L71.3295929,21.0049724 L71.3295929,28.2621152 C71.3295929,28.9478295 71.344831,29.42402 71.3753072,29.6906867 L70.7467357,29.6906867 C70.7238786,29.3935438 70.71245,29.0506867 70.71245,28.6621152 C70.1714977,29.4544962 69.4476881,29.8506867 68.5410215,29.8506867 C67.6876881,29.8506867 67.0172119,29.5573533 66.5295929,28.9706867 C66.0495929,28.3764009 65.8095929,27.6183057 65.8095929,26.6964009 L65.8095929,26.6964009 Z M68.63245,29.2792581 C69.1962596,29.2792581 69.67245,29.0964009 70.0610215,28.7306867 C70.4495929,28.3573533 70.6438786,27.8964009 70.6438786,27.3478295 L70.6438786,26.3764009 C70.6438786,25.7897343 70.4419738,25.2983057 70.0381643,24.9021152 C69.6419738,24.4983057 69.1505453,24.2964009 68.5638786,24.2964009 C67.9010215,24.2964009 67.3905453,24.5211628 67.03245,24.9706867 C66.6743548,25.4202105 66.4953072,26.0030676 66.4953072,26.7192581 C66.4953072,28.4259247 67.2076881,29.2792581 68.63245,29.2792581 L68.63245,29.2792581 Z M60.0553072,26.8221152 C60.0781643,27.5611628 60.2991167,28.1554486 60.7181643,28.6049724 C61.144831,29.0544962 61.71245,29.2792581 62.4210215,29.2792581 C63.0838786,29.2792581 63.7657834,29.1421152 64.4667357,28.8678295 L64.5238786,29.4278295 C63.8457834,29.7097343 63.1219738,29.8506867 62.35245,29.8506867 C61.4762596,29.8506867 60.7600691,29.5802105 60.2038786,29.0392581 C59.6476881,28.4906867 59.3695929,27.7859247 59.3695929,26.9249724 C59.3695929,26.0030676 59.6362596,25.2411628 60.1695929,24.6392581 C60.7105453,24.0297343 61.4153072,23.7249724 62.2838786,23.7249724 C63.9219738,23.7249724 64.7600691,24.7573533 64.7981643,26.8221152 L60.0553072,26.8221152 L60.0553072,26.8221152 Z M64.11245,26.2506867 C64.0972119,25.6564009 63.9143548,25.18402 63.5638786,24.8335438 C63.2210215,24.4754486 62.7676881,24.2964009 62.2038786,24.2964009 C61.6400691,24.2964009 61.1676881,24.4830676 60.7867357,24.8564009 C60.4057834,25.2221152 60.1734024,25.6868771 60.0895929,26.2506867 L64.11245,26.2506867 L64.11245,26.2506867 Z M55.9376284,23.7249724 C56.6157237,23.7249724 57.1300094,23.9802105 57.4804856,24.4906867 C57.8309618,25.0011628 58.0061999,25.6525914 58.0061999,26.4449724 L58.0061999,29.6906867 L57.3204856,29.6906867 L57.3204856,26.4564009 C57.3204856,25.8164009 57.1909618,25.2983057 56.9319142,24.9021152 C56.6804856,24.4983057 56.2881046,24.2964009 55.7547713,24.2964009 C55.3204856,24.2964009 54.9319142,24.4678295 54.589057,24.8106867 C54.2461999,25.1535438 54.0747713,25.5421152 54.0747713,25.9764009 L54.0747713,29.6906867 L53.389057,29.6906867 L53.389057,26.1478295 C53.389057,24.9135438 52.8976284,24.2964009 51.9147713,24.2964009 C51.4652475,24.2964009 51.0576284,24.4906867 50.6919142,24.8792581 C50.3261999,25.2678295 50.1433427,25.6906867 50.1433427,26.1478295 L50.1433427,29.6906867 L49.4576284,29.6906867 L49.4576284,25.2906867 C49.4576284,24.9478295 49.4195332,24.4678295 49.3433427,23.8506867 L49.9719142,23.8506867 C50.0481046,24.0868771 50.0938189,24.4335438 50.109057,24.8906867 C50.5585808,24.1135438 51.2138189,23.7249724 52.0747713,23.7249724 C52.8671523,23.7249724 53.4576284,24.1592581 53.8461999,25.0278295 C54.3033427,24.1592581 55.0004856,23.7249724 55.9376284,23.7249724 L55.9376284,23.7249724 Z M79.5203307,12.6459174 L69.6897529,12.6459174 C69.7761275,13.4356825 69.9900196,14.0197333 70.3272894,14.4063999 C70.8003561,14.9616761 71.42141,15.2372571 72.1823497,15.2372571 C72.6636196,15.2372571 73.1242926,15.1179682 73.5561656,14.8752761 C73.8235434,14.7230983 74.1073275,14.4557206 74.4117084,14.0691301 L79.2447497,14.5132952 C78.5043815,15.800711 77.6158735,16.7221333 76.5711497,17.2814983 C75.5264005,17.8367745 74.0292069,18.1164444 72.0754545,18.1164444 C70.3807751,18.1164444 69.0480767,17.8779428 68.073245,17.4007872 C67.1025275,16.9236317 66.2963815,16.162692 65.6588196,15.1220571 C65.0212577,14.0814221 64.7003942,12.8598094 64.7003942,11.4531047 C64.7003942,9.45406977 65.3421211,7.83347294 66.6213338,6.59946659 C67.9046608,5.36144754 69.6733211,4.74031738 71.9314799,4.74031738 C73.7618291,4.74031738 75.2096513,5.02006342 76.2667688,5.57533961 C77.3279751,6.12650151 78.1383116,6.93264754 78.6894735,7.98156183 C79.2447497,9.03448881 79.5203307,10.4041904 79.5203307,12.0906666 L79.5203307,12.6459174 Z M74.5350862,10.2972952 C74.4363942,9.34714913 74.18141,8.66841897 73.7700577,8.26125707 C73.3546672,7.84987929 72.8117084,7.64429199 72.1371434,7.64429199 C71.3556069,7.64429199 70.7345529,7.95687611 70.2656005,8.57384119 C69.9694227,8.96048246 69.7802418,9.53224119 69.7021211,10.2972952 L74.5350862,10.2972952 Z M1.42108547e-13,12.0219174 C1.0623746,11.9999491 3.91560635,12.0225523 5.20264127,12.0239237 C5.32525714,12.7023745 5.53660952,13.2310602 5.83337143,13.6128507 C6.38819048,14.3227428 7.18780952,14.6734729 8.2239746,14.6734729 C8.99507302,14.6734729 9.59065397,14.4939428 10.0107937,14.1308952 C10.4268952,13.7679745 10.6348698,13.3477079 10.6348698,12.8703237 C10.6348698,12.4175745 10.4391365,12.0096761 10.0392127,11.6506412 C9.63951746,11.2916317 8.71753651,10.9531428 7.26519365,10.6349206 C4.89107302,10.1004698 3.19806984,9.39474278 2.1864381,8.50961262 C1.16662857,7.62433008 0.656634921,6.49846342 0.656634921,5.12789834 C0.656634921,4.22615865 0.917892063,3.37371421 1.4399746,2.57409516 C1.96210794,1.77442532 2.74524444,1.14623492 3.79370159,0.685333333 C4.84210794,0.228419048 6.27812063,7.10542736e-15 8.10166349,7.10542736e-15 C10.3411556,7.10542736e-15 12.0503619,0.416101587 13.2251937,1.24830469 C13.8494222,1.69041262 14.3388952,2.27187294 14.6942984,2.99187294 C14.9784635,3.56792373 15.1769905,4.23291421 15.2899556,4.98638723 L10.0948063,4.98638723 C9.93742222,4.46709834 9.69315556,4.07022215 9.36208254,3.79794278 C8.9296254,3.44281897 8.33000635,3.2634158 7.56726349,3.2634158 C6.93495873,3.2634158 6.46168889,3.39408246 6.14356825,3.66331421 C5.82537143,3.92845707 5.66613333,4.25473008 5.66613333,4.63814596 C5.66613333,4.91560627 5.79664762,5.16441897 6.05775238,5.38887611 C6.31476825,5.62133326 6.91855238,5.83342215 7.87725714,6.03334596 C10.2431746,6.54326342 11.9360508,7.06130786 12.9601016,7.58351738 C13.9840508,8.1057523 14.7306667,8.75019675 15.1957079,9.52533326 C15.6606984,10.2962793 15.8972698,11.1611174 15.8972698,12.1198221 C15.8972698,13.2416507 15.5831111,14.2777396 14.9631238,15.2242031 C14.3429841,16.1747047 13.4742603,16.8926729 12.3564698,17.3822221 C11.2426921,17.871746 9.83535238,18.1165206 8.13823492,18.1165206 C5.16033016,18.1165206 3.09620317,17.545346 1.94981587,16.3950729 C0.799542857,15.2486856 0.150831746,13.7923809 1.42108547e-13,12.0219174 L1.42108547e-13,12.0219174 Z M49.5681783,10.6033269 L49.5681783,12.2194539 C49.5681783,12.3399618 49.5710735,12.4607745 49.581791,12.5806221 C49.5909338,12.6770285 49.6049021,12.768965 49.6239751,12.8556444 C49.6864005,13.1022729 49.7886989,13.3276952 49.9454227,13.5281015 C50.0996323,13.7247237 50.2843434,13.8771809 50.5036957,13.9910094 C50.7304132,14.1061841 50.9671878,14.1551491 51.2155434,14.158019 C51.5878862,14.1551491 51.9409275,14.0714158 52.2456132,13.8486094 C52.5623624,13.6193269 52.7750354,13.2988952 52.9199497,12.9390729 C53.1154037,12.4550856 53.1799624,11.9180952 53.1799624,11.3993396 C53.1799624,10.8945269 53.1167751,10.3823237 52.9399624,9.90940945 C52.8022354,9.54872373 52.597791,9.22232373 52.2918862,8.98389834 C51.9922037,8.7522285 51.6382227,8.66763167 51.2694862,8.66483802 C51.0165084,8.66763167 50.7796577,8.72012691 50.5529402,8.84114278 C50.3212703,8.96134596 50.1276957,9.12751738 49.9686608,9.3345523 C49.7986291,9.55649516 49.6880513,9.81084437 49.6239751,10.0881015 C49.6043942,10.1664761 49.589918,10.2500571 49.5810037,10.3310475 C49.5712767,10.4213333 49.5681783,10.5127618 49.5681783,10.6033269 L49.5681783,10.6033269 Z M49.5714291,5.82615865 C51.9639116,4.31598723 54.4834545,4.25630469 56.4130799,6.44081262 C56.9461084,7.04906659 57.3323434,7.756165 57.5995688,8.51674913 C57.9063878,9.38466024 58.0299942,10.3112634 58.0339561,11.2321777 C58.0299942,12.0613587 57.9411053,12.901638 57.7054735,13.6980063 C57.5057783,14.3830094 57.2130545,15.0453079 56.8068069,15.6356317 C56.4353275,16.1690158 55.9910862,16.6422856 55.4649656,17.0209015 C54.9719116,17.3831618 54.4334735,17.6608253 53.8511497,17.8473396 C53.2863751,18.0279872 52.7015116,18.1194158 52.1060069,18.1194158 C51.6121656,18.1151491 51.1123815,18.058438 50.6341592,17.9180444 C50.2600894,17.8038602 49.8977529,17.6516825 49.5681783,17.4448507 L49.5681783,20.7353396 L44.8654481,20.7353396 L44.8654481,4.989765 L49.5648767,4.98946024 C49.5647243,5.13726977 49.5647243,5.5985777 49.5714291,5.82615865 L49.5714291,5.82615865 Z M59.0900069,0.289473016 L63.8323307,0.289473016 L63.8323307,14.1621333 L59.0900069,17.3194412 L59.0900069,0.289473016 Z M22.8000513,4.9842031 L27.2133338,4.9842031 L27.2133338,6.78427929 C27.85181,6.03088246 28.490083,5.49945389 29.1363561,5.17843802 C29.7827561,4.86125707 30.5637846,4.70245072 31.4797211,4.70245072 C32.4630608,4.70245072 33.2402545,4.8770285 33.8112259,5.22603167 C34.386083,5.57490786 34.8540957,6.09424754 35.2188703,6.78427929 C35.9603053,5.97927611 36.6382481,5.4281904 37.2528259,5.13871738 C37.8635942,4.84924437 38.6168386,4.70245072 39.5170291,4.70245072 C40.8412196,4.70245072 41.8761656,5.09516183 42.6176767,5.884165 C43.3629973,6.66915548 43.73181,7.89841262 43.73181,9.57175865 L43.73181,17.3194412 L38.9934989,17.3194412 L38.9934989,10.2933333 C38.9934989,9.73424754 38.8865275,9.31791738 38.6685211,9.0481777 C38.351264,8.62399992 37.9548196,8.40990469 37.4827688,8.40990469 C36.9277211,8.40990469 36.4746672,8.61132691 36.1347307,9.01269834 C35.7929148,9.41612691 35.6273529,10.0635428 35.6273529,10.9555047 L35.6273529,14.1374475 L30.8850037,17.3194412 L30.8850037,10.5232761 C30.8850037,9.980165 30.8532577,9.61526342 30.7938037,9.4210285 C30.6906926,9.11174596 30.516191,8.86194278 30.2704259,8.67166977 C30.0205465,8.48124437 29.7310735,8.38615865 29.3980957,8.38615865 C28.8547815,8.38615865 28.4107434,8.5921777 28.0617402,9.00066024 C27.712864,9.4129523 27.5385656,10.0871618 27.5385656,11.0228825 L27.5385656,17.3194412 L22.8000513,17.3194412 L22.8000513,4.9842031 Z M16.949791,0.289473016 L21.6799497,0.289473016 L21.6799497,3.50905389 L16.949791,3.50905389 L16.949791,0.289473016 Z M16.949791,4.9842031 L21.6799497,4.9842031 L21.6799497,14.1009269 L16.949791,17.3194412 L16.949791,4.9842031 Z" id="path4154"></path>
                    </g>
                </g>
            </g>
        </g>
    </g>
</svg>