<?xml version="1.0" encoding="UTF-8"?>
<svg width="16px" height="25px" viewBox="0 0 16 25" version="1.1" xmlns="http://www.w3.org/2000/svg" xmlns:xlink="http://www.w3.org/1999/xlink">
    <!-- Generator: sketchtool 49.1 (51147) - http://www.bohemiancoding.com/sketch -->
    <title>656AA947-0A54-449B-A1CA-D43A52F8FB55</title>
    <desc>Created with sketchtool.</desc>
    <defs></defs>
    <g id="Mobile" stroke="none" stroke-width="1" fill="none" fill-rule="evenodd" fill-opacity="1">
        <g id="Home" transform="translate(-20.000000, -1110.000000)" fill="#8C9298">
            <g id="Catalogue" transform="translate(0.000000, 867.000000)">
                <path d="M35.7065637,256.142857 L24.2471042,267.602317 C24.0514791,267.797942 23.8198212,267.895753 23.5521236,267.895753 C23.2844259,267.895753 23.052768,267.797942 22.8571429,267.602317 L20.2934363,265.03861 C20.0978111,264.842985 20,264.611327 20,264.343629 C20,264.075932 20.0978111,263.844274 20.2934363,263.648649 L28.4942085,255.447876 L20.2934363,247.247104 C20.0978111,247.051479 20,246.819821 20,246.552124 C20,246.284426 20.0978111,246.052768 20.2934363,245.857143 L22.8571429,243.293436 C23.052768,243.097811 23.2844259,243 23.5521236,243 C23.8198212,243 24.0514791,243.097811 24.2471042,243.293436 L35.7065637,254.752896 C35.9021889,254.948521 36,255.180179 36,255.447876 C36,255.715574 35.9021889,255.947232 35.7065637,256.142857 Z" id="fa-chevron-right" transform="translate(28.000000, 255.447876) scale(-1, 1) translate(-28.000000, -255.447876) "></path>
            </g>
        </g>
    </g>
</svg>
