<?xml version="1.0" encoding="UTF-8"?>
<svg width="204px" height="204px" viewBox="0 0 204 204" version="1.1" xmlns="http://www.w3.org/2000/svg" xmlns:xlink="http://www.w3.org/1999/xlink">
    <!-- Generator: Sketch 56.3 (81716) - https://sketch.com -->
    <title>logo-lensnab-home@2x</title>
    <desc>Created with Sketch.</desc>
    <g id="-Desktop-1920-px" stroke="none" stroke-width="1" fill="none" fill-rule="evenodd">
        <g id="Home-Hover-logo" transform="translate(-858.000000, -438.000000)" fill="#FFFFFF" fill-rule="nonzero">
            <g id="Group-3" transform="translate(819.000000, 399.000000)">
                <g id="logo-lensnab-home" transform="translate(39.000000, 39.000000)">
                    <g id="Group">
                        <g id="logo">
                            <path d="M100.059737,0 C101.318184,0 102.577169,0 103.835616,0 C104.494624,0.0640766643 105.151486,0.161537809 105.812104,0.18630694 C111.140516,0.389844579 116.422239,0.98161142 121.656738,2.01653032 C130.317756,3.73044647 138.629413,6.49112763 146.571318,10.3631889 C160.108351,16.9636238 171.643137,26.1082792 181.164407,37.8052319 C187.226959,45.2537403 192.130343,53.4060151 195.875634,62.2566716 C200.808534,73.9127015 203.488035,86.0711139 203.89911,98.7297551 C203.906623,98.9709849 203.965118,99.2100608 204,99.4496753 C204,101.168438 204,102.8872 204,104.606501 C203.965654,104.846115 203.917356,105.085729 203.898573,105.326959 C203.649567,108.450562 203.475692,111.581703 203.142968,114.696152 C202.641199,119.389902 201.693472,124.00773 200.447367,128.55825 C195.136128,147.952479 185.022395,164.392182 170.14266,177.856359 C161.404901,185.762557 151.54232,191.909071 140.644539,196.361592 C131.816086,199.969269 122.667252,202.342798 113.175498,203.328179 C108.376224,203.827331 103.57051,204.150945 98.7336709,203.928561 C91.9852789,203.617331 85.3093348,202.826335 78.7273048,201.271802 C67.4377682,198.605352 56.885054,194.183523 47.1061912,187.92501 C34.8007734,180.05058 24.633375,169.991083 16.6281453,157.744901 C9.97903376,147.573404 5.30104305,136.553295 2.59739303,124.694804 C1.30942954,119.045288 0.491036079,113.325773 0.203927552,107.53195 C0.157238876,106.590723 0.0692280374,105.65165 0,104.710962 C0,102.9222 0,101.132899 0,99.3441372 C0.034345693,99.1034459 0.091230747,98.8638315 0.0998171702,98.6220632 C0.231296776,94.8006171 0.589243295,91.0017863 1.13662778,87.2169554 C2.28184198,79.3080643 4.33936365,71.6441722 7.3145593,64.2349713 C13.2740737,49.3950313 22.2039539,36.6340828 34.1138595,25.9962796 C44.8313257,16.4235491 57.0465861,9.45642334 70.7016823,5.03082583 C76.2919805,3.21944854 81.9917556,1.85822326 87.8160338,1.10761091 C91.2055244,0.670920367 94.6282873,0.492690318 98.036024,0.195999208 C98.7111316,0.137845597 99.3851658,0.0662305017 100.059737,0 Z M102.379441,197.672418 C106.338649,197.634678 110.27326,197.349166 114.183272,196.803302 C117.033924,196.405663 119.881843,195.949501 122.701338,195.376289 C128.180166,194.262136 133.493366,192.570943 138.670456,190.461874 C144.535201,188.072216 150.112422,185.132318 155.391185,181.630694 C163.598767,176.187918 170.804931,169.64521 177.002025,161.983426 C181.035028,156.996265 184.544911,151.668897 187.490129,145.975614 C191.866959,137.515272 194.949381,128.611347 196.651026,119.22227 C197.467685,114.717526 197.974407,110.185982 198.178298,105.625448 C198.371257,101.320891 198.210002,97.0141456 197.779261,92.7216214 C197.39881,88.935033 196.795335,85.1839969 195.97813,81.4674191 C194.128349,73.0601318 191.170559,65.061422 187.148488,57.4515991 C184.143141,51.7654265 180.597728,46.440793 176.512795,41.4776986 C169.13827,32.5152492 160.419046,25.1318668 150.369882,19.332474 C142.500115,14.7899901 134.147677,11.4272939 125.317488,9.28048484 C121.328761,8.31018183 117.305597,7.50779484 113.210279,7.13422271 C110.716573,6.90668829 108.222321,6.61242503 105.722602,6.52819354 C103.111372,6.44013335 100.488663,6.49537608 97.8779794,6.62336419 C95.3077461,6.74971142 92.7369663,6.97287018 90.1820385,7.28463608 C85.6461399,7.83761035 81.1763829,8.76251587 76.7738609,9.98988902 C66.9848909,12.7186611 57.8447655,16.8722581 49.3682434,22.4938897 C43.7527593,26.2181249 38.5860548,30.4800195 33.8719562,35.2899658 C29.157311,40.0999121 25.002957,45.3556289 21.393042,51.0467241 C18.3341255,55.8692504 15.7338279,60.9258746 13.5850429,66.213315 C11.1481863,72.2101595 9.35033494,78.3984393 8.16087779,84.7628394 C7.24965303,89.6373267 6.76370294,94.5593993 6.61994042,99.5099138 C6.51170857,103.247276 6.66039071,106.979715 7.00039179,110.70942 C7.31579472,114.17221 7.79737181,117.605463 8.49541262,121.006446 C10.3490198,130.035078 13.415589,138.632706 17.7547025,146.769249 C23.0006677,156.605737 29.7465733,165.275017 38.0088182,172.757946 C42.7333027,177.037343 47.8398784,180.797678 53.3170662,184.061921 C59.3151881,187.63629 65.6276197,190.512741 72.2488948,192.708776 C79.3807181,195.073821 86.6962075,196.582878 94.1822442,197.214067 C96.9071724,197.443789 99.646313,197.523098 102.379441,197.672418 Z" id="Shape"></path>
                            <path d="M110.587834,99.4389065 C109.674449,100.656274 108.795885,101.793495 107.952143,102.956168 C105.281095,106.635349 102.98665,110.527352 101.521485,114.870995 C100.698099,117.311146 100.485422,119.82657 100.728099,122.383151 C100.767206,122.796883 100.683099,123.079564 100.359531,123.344374 C99.0732919,124.39874 97.8041959,125.474768 96.5270642,126.539965 C96.4917074,126.569749 96.4365293,126.574623 96.2972448,126.624985 C96.2013528,125.744451 96.0518898,124.899117 96.0288543,124.049992 C95.9715334,121.949924 96.403851,119.917006 97.1243804,117.966402 C98.587939,114.002916 100.212746,110.108747 102.472369,106.524335 C103.315576,105.186746 104.198961,103.87461 105.046454,102.540812 C105.165917,102.3529 105.18681,102.101087 105.252702,101.879058 C105.007347,101.842775 104.749671,101.739884 104.517173,101.781582 C103.361647,101.987906 102.443441,102.62854 101.606127,103.435426 C99.4681099,105.495962 97.3595569,107.598196 95.900284,110.219761 C94.8358291,112.133 93.9706581,114.159419 93.0074523,116.130602 C91.9119261,118.372011 90.8710424,120.644828 89.6758743,122.831 C89.113915,123.858289 88.3489217,124.82601 87.4976791,125.625856 C85.8739434,127.151356 83.9368175,127.02193 82.0200486,126.256201 C80.7616668,125.753116 80.7755952,125.69084 80.0813156,126.84918 C79.2113232,128.301574 78.2175819,129.64891 77.0470565,130.875484 C74.9176109,133.106603 72.2985267,134.366211 69.3199814,134.849259 C67.7117812,135.109737 66.0692956,135.263532 64.4418099,135.266781 C62.0852234,135.272197 59.7463153,134.912618 57.5300847,134.081906 C55.5763519,133.34921 53.9119022,132.119929 52.5292357,130.528902 C52.1381677,130.078346 51.8097778,129.564431 51.3779958,129.16153 C50.752287,128.576132 50.6167525,127.887842 50.6467522,127.069043 C50.6955018,125.748242 50.6569307,124.424192 50.6649664,123.101225 C50.6660378,122.956094 50.7346086,122.811504 50.7721083,122.666373 C50.9226427,122.72865 51.097284,122.760059 51.2194258,122.858618 C53.6606544,124.822219 56.0284908,126.887629 58.5554329,128.730469 C60.2220254,129.945129 62.030581,131.086682 64.1423482,131.346077 C65.4473368,131.506371 66.7967892,131.499331 68.1071349,131.371529 C70.6844337,131.120257 73.0458416,130.181238 75.1163591,128.602125 C76.4717044,127.567796 77.6534797,126.342305 78.455437,124.796767 C78.7404345,124.247111 78.6745422,123.966596 78.1838322,123.564236 C77.4799098,122.986961 76.7684875,122.418892 76.0602794,121.847033 C75.9922443,121.791796 75.9086736,121.748474 75.8583169,121.680782 C75.6317117,121.374274 75.3333215,121.067224 75.5529624,120.645911 C75.701354,120.361064 76.3817052,120.339944 76.7561662,120.555475 C77.4354459,120.947545 78.1190114,121.332034 78.8057911,121.710566 C78.92204,121.774467 79.0629317,121.792338 79.2231088,121.841076 C79.6575693,121.098092 79.6522122,120.278751 79.6275696,119.513022 C79.5032849,115.64593 78.1918679,112.235891 75.6901041,109.281825 C74.5624354,107.950193 73.3945885,106.664592 71.9781724,105.655173 C69.281946,103.734352 66.3505431,102.383767 63.0157509,102.056139 C58.4488267,101.606125 54.196364,102.553267 50.2406844,104.906232 C47.6971352,106.418735 45.705367,108.497684 44.0002034,110.905343 C42.3759319,113.197655 41.420226,115.744489 41.1180858,118.523098 C40.8700523,120.806746 41.0854075,123.079564 41.8402223,125.25653 C42.4262886,126.948281 43.0396761,128.638949 44.0237746,130.157952 C45.6694745,132.696662 47.5771363,134.994931 49.9921151,136.823691 C51.3581746,137.857479 52.7424482,138.868523 54.1390431,139.860071 C56.0954545,141.248564 58.3095422,142.139387 60.5338084,142.930026 C62.8068242,143.737994 65.1430537,144.436031 67.505533,144.894169 C69.6467642,145.308442 71.8587091,145.36422 74.0433328,145.525056 C76.417062,145.69943 78.7656128,145.362596 81.1216636,145.114032 C85.1903779,144.685137 89.1337362,143.676801 93.0315592,142.496799 C96.877954,141.333043 100.506315,139.620171 104.00182,137.626786 C108.211426,135.225083 112.073892,132.350622 115.55279,128.950331 C118.794905,125.782359 121.554345,122.218525 123.886289,118.335728 C125.34824,115.90045 126.595372,113.334663 127.93036,110.822488 C129.528918,107.812643 131.09319,104.784386 132.719604,101.790246 C134.718337,98.1078165 137.160101,94.7459748 140.135432,91.8059879 C141.343457,90.6119059 142.654338,89.5250476 144.191825,88.7625681 C145.485564,88.1213921 146.869301,87.9183169 148.269111,88.1251828 C149.80499,88.3520854 151.011944,89.1557216 151.612474,90.6763484 C152.315861,92.457453 152.672643,94.3111232 152.152469,96.1897038 C151.70783,97.7975176 150.757482,99.1313153 149.463743,100.189472 C149.315351,100.311317 149.112853,100.365471 148.935533,100.450492 C148.895355,100.41096 148.855713,100.371428 148.815534,100.331896 C148.923748,100.156439 149.022854,99.9728588 149.143924,99.806608 C150.451591,98.0195465 151.071943,96.0684003 150.417842,93.867607 C149.951774,92.2966175 147.997506,91.1713103 146.382877,91.3018199 C144.326288,91.4686124 142.744873,92.4937358 141.308636,93.8611086 C139.130441,95.935183 137.523848,98.4636042 135.836898,100.924875 C133.279956,104.658209 131.237296,108.68343 129.212313,112.727604 C126.965012,117.218002 124.841459,121.789089 121.903092,125.890124 C119.65954,129.021814 117.292775,132.050612 114.506014,134.7155 C109.080347,139.904477 102.98665,144.052084 95.9404622,146.65632 C92.5247779,147.918635 89.0373085,148.982749 85.4180545,149.451717 C81.8427287,149.914729 78.2540102,150.284596 74.6647559,150.618181 C72.9328068,150.779017 71.1831793,150.839668 69.4437303,150.808801 C66.5332201,150.756272 63.6253884,150.600852 60.7523779,150.045238 C56.314024,149.18799 52.2238813,147.472411 48.4980211,144.905541 C45.6201892,142.922986 43.1077112,140.505579 41.171121,137.583463 C39.1889956,134.593113 37.7720437,131.320083 37.3713329,127.683142 C36.8672302,123.10285 37.4532965,118.666605 39.4252435,114.505459 C40.9943369,111.195063 43.1152111,108.261033 45.8371516,105.772686 C47.8208842,103.959089 49.994258,102.460665 52.3631658,101.238965 C56.1817037,99.269948 60.2155969,98.4089093 64.5034165,98.9233664 C69.6451571,99.5396318 74.0969038,101.613706 77.7638359,105.336209 C80.1788147,107.788274 81.6863015,110.746673 82.4170094,114.109598 C83.0164684,116.869254 82.7748634,119.600751 81.9948702,122.295964 C81.7264797,123.224695 81.8539786,123.383364 82.8423628,123.380115 C84.7344891,123.374158 86.1653694,122.52395 87.2539313,120.993034 C89.8023018,117.40808 91.9071048,113.545862 94.0938713,109.737254 C95.5354658,107.226162 97.1468802,104.849371 99.0807919,102.708146 C100.576493,101.052136 102.274157,99.6186957 104.398245,98.8795021 C106.478406,98.1549299 108.538745,98.3520482 110.587834,99.4389065 Z" id="Shape"></path>
                            <path d="M45.8639129,99.0169941 C45.0681599,100.177519 44.2863487,101.348955 43.4627121,102.488746 C43.3152512,102.693352 43.0074599,102.803567 42.7522184,102.898504 C39.1107369,104.248357 35.3373448,104.870904 31.4744038,104.943471 C29.3204012,104.983301 27.227528,104.66739 25.3083905,103.576704 C23.0846792,102.313058 21.8851512,100.384852 21.6449239,97.8046361 C21.3875375,95.0405473 22.2529993,92.5934612 23.8085784,90.4257303 C27.2328902,85.6526848 31.479766,81.7679015 36.3878031,78.6027852 C42.2899953,74.7976618 48.679613,72.1918015 55.3904275,70.3077907 C61.2196935,68.6709438 67.134755,67.5202404 73.1361482,66.8163963 C76.113251,66.4672023 79.093035,66.1387417 82.0771087,65.8670251 C84.0916936,65.6842438 86.1159305,65.6062208 88.13695,65.5025538 C91.0298661,65.3536008 93.9238545,65.1140755 96.8173068,65.112426 C100.392833,65.1113474 103.978011,65.1806406 107.541204,65.4567221 C114.875645,66.0241624 121.963959,67.8012325 128.954145,70.1124603 C135.477818,72.2698245 141.747322,75.0830187 148.168041,77.4979135 C153.662168,79.5641599 159.187933,81.5622044 164.971084,82.624518 C167.364241,83.0642842 169.80834,83.2454286 172.237424,83.433666 C173.798365,83.5547926 175.374857,83.4909556 176.943306,83.4794977 C178.164819,83.4702222 179.170234,82.827487 180.17136,82.2180343 C181.688868,81.2943071 182.562373,79.8386046 183.305576,78.0888152 C183.631599,78.462562 183.989259,78.7359154 184.167821,79.1003866 C184.998964,80.7999793 184.936762,82.5721389 184.407512,84.3382967 C184.023577,85.6194022 183.456791,86.8197566 182.603126,87.8586088 C182.012746,88.5760933 181.243804,88.9973086 180.338125,89.0349561 C177.917084,89.1353493 175.490145,89.3023077 173.072321,89.2275584 C168.897299,89.0982475 164.795203,88.3769436 160.739759,87.3402739 C155.411324,85.9784173 150.144018,84.4185022 145.027927,82.3811734 C140.938164,80.7525108 136.907385,78.9716213 132.830492,77.3107674 C127.113296,74.9815342 121.242741,73.1368078 115.259043,71.6532789 C112.116784,70.8741397 108.929482,70.3699909 105.724485,69.9984266 C101.814893,69.5450201 97.8876053,69.5723008 93.9597814,69.7261644 C92.5822279,69.780726 91.2019932,69.7861822 89.8255122,69.851656 C85.1164132,70.0737216 80.423401,70.4780228 75.7518376,71.1382177 C70.2394786,71.9168112 64.786104,73.0353233 59.4367564,74.5646839 C53.0423127,76.3924962 46.7299109,78.5045744 40.8754425,81.7946366 C37.9331941,83.4483976 35.1132042,85.2920328 32.7162932,87.7162031 C30.4394959,90.018701 28.6737179,92.6512965 28.0747582,95.9375394 C27.8876169,96.9632968 27.7760827,98.0146981 28.1348151,99.0399099 C28.4672725,99.9887355 29.1718678,100.588913 30.0341123,100.985575 C31.5151566,101.667595 33.098083,101.571566 34.6670677,101.515914 C38.3771856,101.38442 41.8760322,100.32538 45.3099959,98.985894 C45.4488773,98.9313324 45.600628,98.910599 45.7459441,98.8734971 C45.786697,98.9204201 45.8253049,98.9689799 45.8639129,99.0169941 Z" id="Shape"></path>
                            <path d="M117.216803,108.59389 C116.502641,107.873225 115.649292,107.701298 114.756176,107.713383 C114.393296,107.717777 113.987886,107.776551 113.679686,107.947379 C112.894274,108.381865 112.786017,109.567228 113.537185,110.307118 C113.974078,110.73721 114.58882,111.06129 115.182574,111.245301 C116.373948,111.61607 117.609509,111.491382 118.810272,111.22278 C119.666383,111.031079 120.317027,110.493876 120.800867,109.767718 C121.900554,108.120405 122.114306,106.32808 121.494592,104.484671 C120.921827,102.778584 120.031472,102.376505 118.251868,102.312239 C116.844533,102.261704 115.571414,102.778035 114.345795,103.372364 C110.373996,105.298166 107.670896,108.421414 105.899024,112.391115 C105.139572,114.092258 104.409945,115.813176 104.1741,117.676908 C104.026076,118.843595 103.902354,120.044337 104.541951,121.12918 C105.013088,121.926196 105.722279,122.40133 106.670628,122.505145 C107.756507,122.62434 108.766718,122.389245 109.770852,121.99266 C112.494388,120.917704 115.164899,119.740032 117.647619,118.178408 C118.026517,117.940017 118.375589,117.656035 118.741231,117.397321 C118.975971,117.231436 119.203531,117.114438 119.439375,117.416546 C119.665278,117.705471 119.765802,117.981213 119.437718,118.255308 C118.778237,118.807891 118.135878,119.384643 117.446019,119.896579 C114.235882,122.278839 110.694347,124.017333 106.871676,125.194456 C105.672017,125.563578 104.459102,125.536663 103.254472,125.243892 C101.864812,124.907179 100.773961,123.354343 100.800473,121.712523 C100.833613,119.608203 101.260011,117.561008 101.923358,115.572588 C102.973336,112.425171 104.270758,109.379371 106.271847,106.700496 C109.138988,102.862076 112.957792,100.557265 117.784045,100.145849 C119.727691,99.9794149 121.557558,100.573195 123.124516,101.793711 C124.678218,103.004341 125.047174,104.632429 124.65502,106.460458 C124.298216,108.120954 123.428297,109.549101 122.339104,110.83004 C121.052177,112.342777 119.251583,112.933261 117.389682,113.328199 C116.013829,113.62042 114.615332,113.669307 113.221805,113.352917 C112.091187,113.095851 111.13621,112.537774 110.450769,111.624859 C109.794602,110.751492 109.874138,109.745746 110.344722,108.828436 C111.450485,106.676877 113.071019,105.197097 115.659234,105.151506 C116.558978,105.135576 117.3941,105.403629 118.151896,105.889199 C118.503177,106.114407 118.555096,106.453317 118.368961,106.778495 C118.023203,107.378866 117.629392,107.950125 117.216803,108.59389 Z" id="Shape"></path>
                            <path d="M131.499463,125.464958 C130.086671,125.508813 128.915484,124.973048 127.921687,124.021458 C127.337936,123.461917 127.201605,122.731714 127.2,121.948145 C127.193709,119.331141 128.365948,117.122566 129.602405,114.940937 C130.590412,113.198381 131.745807,111.578935 133.276508,110.266999 C134.572972,109.15637 135.975764,108.216933 137.58121,107.595045 C139.091382,107.010671 140.270464,107.542208 140.991599,108.945552 C141.490077,109.914578 141.533766,111.805605 140.188876,112.704357 C139.366677,113.25386 138.265498,113.145544 137.637006,112.386809 C137.274333,111.948792 136.992195,111.469563 136.9843,110.857713 C136.97693,110.274396 136.685845,110.072031 136.152626,110.305041 C135.783636,110.466193 135.434649,110.712412 135.133562,110.983993 C133.228082,112.709113 131.838449,114.802504 130.941505,117.203406 C130.527247,118.310864 130.248794,119.4738 130.443553,120.686932 C130.617784,121.776425 131.22838,122.3608 132.339033,122.361328 C132.876463,122.361856 133.436526,122.261995 133.949217,122.094503 C137.667009,120.873974 141.162671,119.20856 144.255656,116.769088 C144.590957,116.504904 144.843091,116.6259 145.068906,116.83302 C145.362098,117.101431 145.095751,117.331799 144.926258,117.533635 C143.510834,119.217014 141.80327,120.554312 139.992011,121.781181 C137.804393,123.263251 135.472022,124.426188 132.951734,125.2087 C132.706443,125.285313 132.456415,125.349774 132.203754,125.394157 C131.968464,125.436426 131.727384,125.443823 131.499463,125.464958 Z" id="Shape"></path>
                        </g>
                    </g>
                </g>
            </g>
        </g>
    </g>
</svg>