<?xml version="1.0" encoding="UTF-8"?>
<svg width="32px" height="32px" viewBox="0 0 32 32" version="1.1" xmlns="http://www.w3.org/2000/svg" xmlns:xlink="http://www.w3.org/1999/xlink">
    <!-- Generator: sketchtool 56.2 (101010) - https://sketch.com -->
    <title>8D74E993-D2F8-4E42-8F74-5E0152C229E1@2x</title>
    <desc>Created with sketchtool.</desc>
    <g id="-Desktop-1920-px" stroke="none" stroke-width="1" fill="none" fill-rule="evenodd" opacity="0.5">
        <g id="Страница-по-умолчанию" transform="translate(-352.000000, -2696.000000)">
            <g id="Desktop-1920px/Footer" transform="translate(0.000000, 2680.000000)">
                <g id="Group">
                    <g transform="translate(352.000000, 13.000000)">
                        <g id="phone">
                            <g id="ic-phone" transform="translate(0.000000, 3.000000)">
                                <path d="M21.4563163,18.0091444 C20.8780621,17.4382719 20.1561652,17.4382719 19.5815941,18.0091444 C19.1432995,18.443744 18.705005,18.8783437 18.2740767,19.3203094 C18.1562159,19.44185 18.056771,19.4676314 17.9131282,19.3866043 C17.6295258,19.2319163 17.3275077,19.1066927 17.0549548,18.9372725 C15.7842688,18.138051 14.7198391,17.1104807 13.7769533,15.9540036 C13.3091935,15.3794481 12.8929978,14.7643791 12.6020291,14.0719661 C12.5430988,13.9320103 12.5541482,13.8399341 12.6683258,13.7257596 C13.1066204,13.3022091 13.5338655,12.8676094 13.9647938,12.4330097 C14.5651469,11.8289899 14.5651469,11.1218447 13.9611107,10.5141417 C13.6185779,10.1679352 13.2760452,9.82909482 12.9335124,9.48288831 C12.5799302,9.12931571 12.2300312,8.77206006 11.8727659,8.4221705 C11.2945117,7.85866416 10.5726147,7.85866416 9.99804366,8.42585355 C9.55606593,8.86045321 9.13250394,9.30610201 8.68315991,9.73333558 C8.26696422,10.1274217 8.05702479,10.609901 8.01282702,11.1734073 C7.94284721,12.0904863 8.16751923,12.9560025 8.48426993,13.7994205 C9.13250394,15.5451853 10.1195875,17.0957485 11.3166106,18.517405 C12.9335124,20.439956 14.8634819,21.9610548 17.1212514,23.0586031 C18.1378002,23.5521316 19.1911805,23.9314855 20.3366394,23.9940973 C21.124833,24.0382939 21.8098985,23.8394093 22.3586875,23.2243403 C22.7343686,22.8044728 23.1579306,22.4214358 23.5557106,22.0199836 C24.1450142,21.4233298 24.1486973,20.7014524 23.5630769,20.1121648 C22.8632788,19.4087026 22.1597976,18.7089235 21.4563163,18.0091444 Z" id="icon-telephone" fill="#FFFFFF" fill-rule="nonzero"></path>
                                <circle id="Oval" stroke="#FFFFFF" stroke-width="2" cx="16" cy="16" r="15"></circle>
                            </g>
                        </g>
                    </g>
                </g>
            </g>
        </g>
    </g>
</svg>