<?xml version="1.0" encoding="UTF-8"?>
<svg width="20px" height="16px" viewBox="0 0 20 16" version="1.1" xmlns="http://www.w3.org/2000/svg" xmlns:xlink="http://www.w3.org/1999/xlink">
    <!-- Generator: Sketch 56.2 (81672) - https://sketch.com -->
    <title>icon-envelope</title>
    <desc>Created with Sketch.</desc>
    <g id="-Desktop-1920-px" stroke="none" stroke-width="1" fill="none" fill-rule="evenodd">
        <g id="Страница-по-умолчанию" transform="translate(-1540.000000, -98.000000)" fill="#FFFFFF" fill-rule="nonzero">
            <g id="icon-envelope" transform="translate(1532.000000, 88.000000)">
                <path d="M26.1493256,25.4545455 L9.85085454,25.4545455 C9.40487675,25.4545455 9.01815853,25.3076161 8.68965517,25.0174952 L14.3122536,19.4071146 C14.4528915,19.507859 14.5829743,19.6019901 14.7002687,19.6877828 C15.1211737,19.9970605 15.4624296,20.2383367 15.7245766,20.4112519 C15.9864715,20.5845624 16.3352564,20.7612155 16.7708953,20.9415706 C17.2065342,21.1221773 17.6124172,21.2121392 17.9889766,21.2121392 L18,21.2121392 L18.0110234,21.2121392 C18.3875468,21.2121392 18.7934298,21.1221414 19.2291047,20.9415706 C19.6644914,20.7612155 20.0132763,20.5845624 20.2754234,20.4112519 C20.5376064,20.2383367 20.8790424,19.9970246 21.2997313,19.6877828 C21.4232218,19.5986835 21.5539531,19.5049837 21.6888272,19.4086242 L27.3103448,25.0174952 C26.9818055,25.3076161 26.5953394,25.4545455 26.1493256,25.4545455 Z M9.08972647,15.6875042 C10.6174214,16.7757177 11.8617952,17.6716598 12.8275862,18.378421 L8,23.4387352 L8,14.7035573 C8.31641976,15.0730525 8.67987251,15.4010838 9.08972647,15.6875042 Z M26.9207578,15.6874794 C27.3307757,15.3934138 27.6904763,15.0656115 28,14.7035573 L28,23.4387352 L23.1724138,18.3803516 C24.2013386,17.6274364 25.4507398,16.7299717 26.9207578,15.6874794 Z M26.2141256,10 C26.697759,10 27.1163948,10.1762553 27.4699241,10.5285829 C27.8230538,10.8813497 28,11.3048968 28,11.7998829 C28,12.3923291 27.8174982,12.9585346 27.4534749,13.4983165 C27.0887981,14.0380984 26.635049,14.4994876 26.0919372,14.8818255 C24.2860914,16.1450739 22.9233917,17.0987776 21.9981009,17.7467428 C21.489594,18.1026204 21.111373,18.3676255 20.8686666,18.5378422 C20.8326818,18.5633509 20.7764716,18.6036451 20.7017787,18.6576636 C20.6213486,18.7156712 20.5195674,18.7895989 20.3942562,18.8809838 C20.1524213,19.0572757 19.9515459,19.1997145 19.7915572,19.3085566 C19.631278,19.417179 19.4379554,19.5390499 19.2110808,19.674096 C18.9839884,19.8091787 18.7701497,19.9103718 18.5693106,19.9778217 C18.3683625,20.045235 18.1823384,20.0790514 17.9890521,20.0790514 C17.8179521,20.0790514 17.6319643,20.045235 17.4310525,19.9778217 C17.2301771,19.9103718 17.0161568,19.8089592 16.789246,19.674096 C16.5621536,19.5390499 16.3685767,19.4174352 16.2088059,19.3085566 C16.0488172,19.1997145 15.8479418,19.0572391 15.6061432,18.8809838 C15.4805779,18.7895989 15.3787966,18.7157078 15.2983665,18.6574806 C15.22371,18.6036817 15.1674634,18.5631313 15.1316965,18.5378422 C14.8201435,18.3170107 14.4427939,18.0509076 14.0052398,17.743632 C13.4919034,17.382777 12.8945422,16.9646099 12.2076367,16.4848485 C10.9351712,15.5963256 10.1724835,15.0619236 9.91957356,14.8818255 C9.45823537,14.5669009 9.02289625,14.1339482 8.61377406,13.5827478 C8.20465187,13.0313278 8,12.5195067 8,12.047138 C8,11.4623408 8.15421514,10.9747109 8.46315377,10.5847972 C8.77183822,10.1950666 9.21247883,10 9.78562026,10 L26.2141256,10 Z"></path>
            </g>
        </g>
    </g>
</svg>