<?xml version="1.0" encoding="UTF-8"?>
<svg width="32px" height="32px" viewBox="0 0 32 32" version="1.1" xmlns="http://www.w3.org/2000/svg" xmlns:xlink="http://www.w3.org/1999/xlink">
    <!-- Generator: sketchtool 56.2 (101010) - https://sketch.com -->
    <title>E1DAD625-9DF2-4A66-A714-D547AB892EFA@2x</title>
    <desc>Created with sketchtool.</desc>
    <g id="-Desktop-1920-px" stroke="none" stroke-width="1" fill="none" fill-rule="evenodd" opacity="0.5">
        <g id="Страница-по-умолчанию" transform="translate(-664.000000, -2696.000000)">
            <g id="Desktop-1920px/Footer" transform="translate(0.000000, 2680.000000)">
                <g id="Group">
                    <g transform="translate(352.000000, 13.000000)">
                        <g id="phone-copy" transform="translate(312.000000, 0.000000)">
                            <g id="ic-mail" transform="translate(0.000000, 3.000000)">
                                <path d="M23.334393,22.9090909 L8.66576909,22.9090909 C8.26438907,22.9090909 7.91634267,22.7768545 7.62068966,22.5157457 L12.6810282,17.4664032 C12.8076023,17.5570731 12.9246769,17.6417911 13.0302418,17.7190045 C13.4090563,17.9973545 13.7161866,18.214503 13.952119,18.3701267 C14.1878243,18.5261062 14.5017308,18.685094 14.8938058,18.8474136 C15.2858808,19.0099596 15.6511755,19.0909253 15.990079,19.0909253 L16,19.0909253 L16.009921,19.0909253 C16.3487921,19.0909253 16.7140868,19.0099272 17.1061942,18.8474136 C17.4980423,18.685094 17.8119487,18.5261062 18.047881,18.3701267 C18.2838458,18.214503 18.5911382,17.9973221 18.9697582,17.7190045 C19.0808996,17.6388152 19.1985578,17.5544853 19.3199444,17.4677618 L24.3793103,22.5157457 C24.0836249,22.7768545 23.7358055,22.9090909 23.334393,22.9090909 Z M7.98075383,14.1187538 C9.35567927,15.098146 10.4756157,15.9044938 11.3448276,16.5405789 L7,21.0948617 L7,13.2332016 C7.28477778,13.5657472 7.61188526,13.8609755 7.98075383,14.1187538 Z M24.028682,14.1187314 C24.3976982,13.8540724 24.7214287,13.5590503 25,13.2332016 L25,21.0948617 L20.6551724,16.5423164 C21.5812048,15.8646927 22.7056658,15.0569745 24.028682,14.1187314 Z M23.392713,9 C23.8279831,9 24.2047554,9.15862978 24.5229316,9.47572464 C24.8407485,9.79321476 25,10.1744071 25,10.6198946 C25,11.1530962 24.8357484,11.6626812 24.5081274,12.1484848 C24.1799183,12.6342885 23.7715441,13.0495389 23.2827435,13.393643 C21.6574823,14.5305665 20.4310525,15.3888999 19.5982908,15.9720685 C19.1406346,16.2923584 18.8002357,16.530863 18.5817999,16.684058 C18.5494137,16.7070158 18.4988244,16.7432806 18.4316008,16.7918972 C18.3592138,16.8441041 18.2676106,16.910639 18.1548306,16.9928854 C17.9371792,17.1515481 17.7563913,17.2797431 17.6124015,17.3777009 C17.4681502,17.4754611 17.2941598,17.5851449 17.0899727,17.7066864 C16.8855896,17.8282609 16.6931348,17.9193347 16.5123795,17.9800395 C16.3315262,18.0407115 16.1641046,18.0711462 15.9901469,18.0711462 C15.8361569,18.0711462 15.6687679,18.0407115 15.4879473,17.9800395 C15.3071594,17.9193347 15.1145411,17.8280632 14.9103214,17.7066864 C14.7059382,17.5851449 14.531719,17.4756917 14.3879253,17.3777009 C14.2439355,17.2797431 14.0631476,17.1515152 13.8455289,16.9928854 C13.7325201,16.910639 13.6409169,16.844137 13.5685299,16.7917325 C13.501339,16.7433136 13.4507171,16.7068182 13.4185269,16.684058 C13.1381291,16.4853096 12.7985145,16.2458169 12.4047158,15.9692688 C11.9427131,15.6444993 11.405088,15.2681489 10.786873,14.8363636 C9.64165406,14.036693 8.95523513,13.5557312 8.7276162,13.393643 C8.31241183,13.1102108 7.92060662,12.7205534 7.55239665,12.224473 C7.18418668,11.728195 7,11.267556 7,10.8424242 C7,10.3161067 7.13879362,9.87723979 7.41683839,9.52631752 C7.6946544,9.17555995 8.09123094,9 8.60705824,9 L23.392713,9 Z" id="icon-envelope" fill="#FFFFFF" fill-rule="nonzero"></path>
                                <circle id="Oval" stroke="#FFFFFF" stroke-width="2" cx="16" cy="16" r="15"></circle>
                            </g>
                        </g>
                    </g>
                </g>
            </g>
        </g>
    </g>
</svg>