<?xml version="1.0" encoding="UTF-8"?>
<svg width="20px" height="20px" viewBox="0 0 20 20" version="1.1" xmlns="http://www.w3.org/2000/svg" xmlns:xlink="http://www.w3.org/1999/xlink">
    <!-- Generator: Sketch 56.2 (81672) - https://sketch.com -->
    <title>icon-telephone</title>
    <desc>Created with Sketch.</desc>
    <g id="-Desktop-1920-px" stroke="none" stroke-width="1" fill="none" fill-rule="evenodd">
        <g id="Страница-по-умолчанию" transform="translate(-1540.000000, -143.000000)" fill="#FFFFFF" fill-rule="nonzero">
            <g id="icon-telephone" transform="translate(1532.000000, 135.000000)">
                <path d="M23.2434834,21.2134838 C24.0403957,22.0062024 24.837308,22.7989209 25.630048,23.5958116 C26.2934462,24.2633641 26.2892739,25.0811158 25.6217034,25.7570127 C25.1710933,26.2117828 24.6912769,26.6456919 24.2657007,27.121323 C23.6440257,27.8180808 22.8679749,28.0433798 21.9750993,27.9933134 C20.6775091,27.9223859 19.4842268,27.492649 18.3326676,26.9335739 C15.775038,25.6902574 13.5887445,23.9671377 11.7570979,21.7892478 C10.4010953,20.1787776 9.28291462,18.4222802 8.54858703,16.4446561 C8.18976787,15.4892216 7.93525661,14.508754 8.01453061,13.4698755 C8.0645984,12.8315285 8.3024204,12.2849699 8.77389209,11.8385442 C9.28291462,11.3545687 9.76273094,10.8497321 10.2634088,10.3574122 C10.9142901,9.71489299 11.732064,9.71489299 12.3871176,10.35324 C12.7918322,10.7495993 13.1882022,11.154303 13.5887445,11.5548344 C13.9767699,11.9470215 14.3647953,12.3308641 14.7528207,12.7230512 C15.4370805,13.4114647 15.4370805,14.2125276 14.756993,14.8967688 C14.268832,15.3890888 13.7848434,15.8814087 13.2883378,16.361212 C13.158996,16.4905503 13.1464791,16.5948554 13.2132361,16.7533991 C13.5428491,17.5377732 14.0143208,18.2345311 14.5442049,18.8853947 C15.6123177,20.1954664 16.818117,21.3595109 18.2575659,22.2648789 C18.5663173,22.4568003 18.9084472,22.5986552 19.2297155,22.7738877 C19.3924358,22.8656761 19.5050884,22.8364707 19.6386025,22.698788 C20.1267634,22.1981237 20.623269,21.7058038 21.1197746,21.2134838 C21.7706559,20.5667924 22.5884298,20.5667924 23.2434834,21.2134838 Z M22.6627667,18 C22.4692017,16.8484529 21.9401239,15.802391 21.1314522,14.97609 C20.2754646,14.1014416 19.1915003,13.5520394 18,13.3806259 L18.2236752,11.75 C19.7635926,11.9697609 21.1615623,12.6817862 22.2670337,13.8113572 C23.3122849,14.8837904 24.0005162,16.2331224 24.25,17.7231013 L22.6627667,18 Z M24.7788057,11.1465703 C26.4777124,12.7845664 27.5920942,14.8472282 28,17.1202006 L26.4482759,17.375 C26.0992431,15.4134491 25.1362489,13.6298533 23.6686291,12.2183456 C22.1211102,10.734038 20.1614802,9.79168464 18,9.50048533 L18.2186712,8 C20.7207738,8.33568809 22.9873844,9.42364107 24.7788057,11.1465703 Z"></path>
            </g>
        </g>
    </g>
</svg>