<?xml version="1.0" encoding="UTF-8"?>
<svg width="251px" height="48px" viewBox="0 0 251 48" version="1.1" xmlns="http://www.w3.org/2000/svg" xmlns:xlink="http://www.w3.org/1999/xlink">
    <!-- Generator: sketchtool 55.2 (78181) - https://sketchapp.com -->
    <title>0110CCEE-AFF0-4DD3-AE9C-443120B45AAF@2x</title>
    <desc>Created with sketchtool.</desc>
    <g id="Desktop-1024-px" stroke="none" stroke-width="1" fill="none" fill-rule="evenodd">
        <g id="Фиксированная-шапка" transform="translate(-47.000000, -8.000000)">
            <g id="top">
                <g id="Logo" transform="translate(47.000000, 8.000000)">
                    <g id="logo">
                        <path d="M23.7868152,2.75277054 C24.0512976,2.75277054 24.3158929,2.75277054 24.5803753,2.75277054 C24.7188761,2.76623725 24.8569258,2.78672024 24.995765,2.79192585 C26.115614,2.83470247 27.2256507,2.95907151 28.3257623,3.17657589 C30.1460105,3.53678214 31.8928352,4.1169824 33.5619505,4.93075656 C36.4069694,6.31794105 38.831185,8.23983321 40.8322286,10.6981305 C42.1063685,12.2635509 43.1368913,13.9768788 43.9240226,15.8369825 C44.9607486,18.2866792 45.5238875,20.8419595 45.6102813,23.5023707 C45.6118603,23.5530689 45.624154,23.6033145 45.6314851,23.6536732 C45.6314851,24.0148979 45.6314851,24.3761226 45.6314851,24.7374606 C45.6242668,24.7878193 45.6141161,24.838178 45.6101686,24.8888762 C45.557836,25.5453501 45.5212934,26.2034083 45.4513663,26.8579584 C45.3459117,27.8444234 45.1467322,28.8149319 44.8848438,29.7712948 C43.7686039,33.847295 41.6430449,37.3023554 38.5158362,40.1320623 C36.6794597,41.7936735 34.6066843,43.0854594 32.3163454,44.0212261 C30.4609081,44.7794359 28.5381378,45.2782701 26.5432974,45.4853632 C25.534655,45.5902678 24.5246592,45.6582803 23.5081218,45.6115429 C22.0898418,45.5461332 20.6867879,45.3798928 19.3034714,45.0531836 C16.930799,44.4927873 14.7129813,43.5634711 12.6578005,42.2481468 C10.0716248,40.5932124 7.93478716,38.4790518 6.2523631,35.9053255 C4.85494846,33.7676264 3.87179564,31.4515783 3.30358136,28.9593313 C3.03289572,27.7719973 2.86089755,26.5699519 2.80055721,25.3522895 C2.79074485,25.154476 2.772248,24.9571151 2.75769865,24.7594147 C2.75769865,24.3834784 2.75769865,24.007429 2.75769865,23.6314927 C2.76491693,23.5809077 2.77687221,23.5305489 2.77867678,23.4797376 C2.80630928,22.676601 2.88153733,21.8782173 2.99657873,21.082776 C3.23726338,19.420599 3.6696837,17.8099124 4.29496753,16.2527531 C5.54745257,13.1339079 7.42420637,10.4519953 9.92725908,8.21629476 C12.179702,6.2044359 14.7469298,4.74018561 17.6167615,3.81007717 C18.79165,3.42938794 19.9895468,3.14330519 21.2136098,2.98555227 C21.9259642,2.89377494 22.6453113,2.85631711 23.3615004,2.79396284 C23.5033848,2.78174095 23.6450436,2.76668992 23.7868152,2.75277054 Z" id="Path" fill="#767676"></path>
                        <path d="M23.7424917,0.422673454 C24.0357222,0.422673454 24.3290777,0.422673454 24.6223083,0.422673454 C24.7758635,0.437603939 24.9289186,0.460313332 25.082849,0.46608478 C26.3244208,0.513511026 27.5551137,0.651398445 28.7748026,0.892544596 C30.7929038,1.2919037 32.7296008,1.93516921 34.5801417,2.83739708 C37.7344018,4.37536249 40.422119,6.50615598 42.6406674,9.23165953 C44.0533007,10.9672343 45.1958369,12.8667935 46.0685259,14.9290824 C47.2179395,17.6450505 47.8422892,20.4780786 47.9380737,23.4276649 C47.9398243,23.4838738 47.9534542,23.5395808 47.9615821,23.5954133 C47.9615821,23.9959016 47.9615821,24.3963899 47.9615821,24.7970037 C47.9535793,24.8528362 47.9423252,24.9086687 47.9379486,24.9648775 C47.8799278,25.6927073 47.8394132,26.4222936 47.7618853,27.1479905 C47.6449682,28.2416798 47.4241387,29.3176785 47.1337843,30.3779938 C45.8962139,34.8970376 43.5396159,38.7276479 40.0724932,41.8649318 C38.0365105,43.7071528 35.7384335,45.1393502 33.1991447,46.1768307 C31.1420295,47.0174546 29.0102623,47.5705099 26.7985914,47.8001132 C25.680314,47.9164204 24.560536,47.9918256 23.4335055,47.940008 C21.8610646,47.8674885 20.3055048,47.6831786 18.7718279,47.3209575 C16.1412563,46.6996486 13.6823714,45.6693197 11.4038015,44.2110253 C8.53651964,42.3762068 6.16741709,40.0322461 4.30212084,37.178767 C2.75281331,34.8087093 1.66279606,32.2409169 1.03281935,29.4777734 C0.732711356,28.1613814 0.542017733,26.8286788 0.475118659,25.4786619 C0.464239744,25.2593469 0.443732364,25.0405337 0.42760156,24.8213441 C0.42760156,24.4045452 0.42760156,23.9876208 0.42760156,23.5708219 C0.435604439,23.5147385 0.448859209,23.458906 0.450859929,23.4025717 C0.481495954,22.5121376 0.564900968,21.6269732 0.692446867,20.7450708 C0.959292894,18.9022224 1.43871542,17.1164611 2.13196489,15.3900454 C3.5205896,11.9321953 5.60133838,8.95877042 8.37646204,6.480059 C10.8737357,4.24951983 13.72001,2.6261119 16.90178,1.59490472 C18.2043737,1.17283622 19.5324766,0.855657516 20.88959,0.68075755 C21.6793742,0.579004413 22.4769112,0.537475081 23.270947,0.468343173 C23.4282536,0.454792816 23.5853101,0.438105804 23.7424917,0.422673454 Z" id="Path" fill="#FFFFFF"></path>
                        <path d="M23.7612072,1.42329688 C24.0422989,1.42329688 24.3235104,1.42329688 24.6046021,1.42329688 C24.7518006,1.43759877 24.8985197,1.45935207 25.0460778,1.46488053 C26.2362523,1.51031007 27.4159982,1.64239223 28.5851956,1.87338579 C30.5197535,2.25593132 32.376277,2.87211446 34.1502111,3.73635728 C37.1738944,5.2095722 39.7503481,7.25065631 41.8770553,9.86141237 C43.2312098,11.523917 44.3264484,13.3435021 45.1630108,15.3189658 C46.2648421,17.9205878 46.8633456,20.6343415 46.9551649,23.4597461 C46.9568431,23.5135886 46.9699087,23.5669502 46.9777002,23.6204321 C46.9777002,24.0040593 46.9777002,24.3876865 46.9777002,24.7714338 C46.9700286,24.8249157 46.9592404,24.8783975 46.955045,24.93224 C46.899426,25.6294271 46.8605886,26.3282968 46.7862702,27.0234408 C46.6741931,28.0710843 46.4625053,29.1017819 46.1841706,30.1174565 C44.997832,34.4462422 42.73879,38.1155785 39.4151958,41.1207783 C37.4634967,42.8854393 35.2605532,44.2573392 32.8263833,45.2511403 C30.8544264,46.0563728 28.810908,46.5861437 26.6907937,46.8060803 C25.6188096,46.9174909 24.545387,46.9897214 23.4650122,46.9400854 C21.9576656,46.8706191 20.4665013,46.6940689 18.996314,46.3470978 C16.4746402,45.7519469 14.1175458,44.7649962 11.9333017,43.3680981 C9.18471676,41.610528 6.91368794,39.3652513 5.12560936,36.6319076 C3.6404385,34.3616327 2.59554468,31.9019479 1.99164712,29.2551366 C1.70396269,27.9941666 1.52116321,26.7175726 1.45703356,25.4243933 C1.446605,25.2143117 1.42694656,25.0047109 1.41148353,24.7947495 C1.41148353,24.3954984 1.41148353,23.9961271 1.41148353,23.596876 C1.41915511,23.5431538 1.43186117,23.4896719 1.43377907,23.4357094 C1.46314685,22.5827638 1.54309915,21.734866 1.66536503,20.890093 C1.92116444,19.1248311 2.38074031,17.4142528 3.04529134,15.7605216 C4.37643116,12.4482518 6.37104319,9.60001226 9.03128507,7.22565805 C11.4251791,5.0890277 14.1536262,3.5339675 17.2036805,2.54617557 C18.4523507,2.14187675 19.7254742,1.83805171 21.0264072,1.67051528 C21.7834967,1.57304609 22.548018,1.5332652 23.3091831,1.46704384 C23.4599777,1.45406398 23.6105325,1.43807951 23.7612072,1.42329688 Z M24.2795187,45.2122007 C25.1477263,45.203908 26.0105399,45.141172 26.8679593,45.0212284 C27.4930736,44.9338547 28.1175886,44.8336213 28.7358703,44.7076685 C29.9373124,44.4628538 31.1024344,44.091245 32.237709,43.6278156 C33.5237783,43.1027319 34.7467967,42.4567432 35.9043669,41.6873255 C37.7041926,40.491375 39.2844192,39.0537345 40.6433685,37.3701976 C41.5277584,36.2743603 42.2974341,35.1037686 42.9432857,33.8527738 C43.9030729,31.9937684 44.5790114,30.0372938 44.9521621,27.974216 C45.1312456,26.984381 45.2423637,25.9886569 45.2870747,24.9865631 C45.3293883,24.0407154 45.2940271,23.0943869 45.1995707,22.1511832 C45.1161422,21.3191497 44.9838074,20.4949282 44.8046039,19.6782782 C44.3989689,17.8309306 43.7503604,16.0733604 42.8683679,14.4012411 C42.2093308,13.1518087 41.4318636,11.9818179 40.5360862,10.8912687 C38.9189401,8.92193439 37.0069175,7.29957118 34.8032548,6.02526071 C33.0775078,5.02713296 31.245917,4.288242 29.309561,3.81651998 C28.4348805,3.60331364 27.5526483,3.42700378 26.6545934,3.34491814 C26.1077532,3.29492161 25.5607932,3.23026265 25.0126345,3.21175432 C24.4400226,3.1924047 23.8648935,3.20454328 23.2924015,3.23266633 C22.7287798,3.26042882 22.1650381,3.30946387 21.6047727,3.37796873 C20.6101038,3.49947471 19.629939,3.70270577 18.664518,3.97239857 C16.5179127,4.57199632 14.5135913,5.48467328 12.6547903,6.71992397 C11.4233811,7.53825652 10.2903839,8.47472989 9.25663787,9.53162759 C8.22277196,10.5885253 7.31177127,11.7433729 6.52015962,12.993887 C5.84937543,14.0535489 5.27916092,15.1646496 4.8079578,16.3264679 C4.27358398,17.6441647 3.87933644,19.003926 3.61850256,20.4023865 C3.41868175,21.4734659 3.31211865,22.5550013 3.28059323,23.6427863 C3.25685926,24.4640033 3.2894635,25.2841386 3.36402171,26.103673 C3.43318584,26.8645576 3.53879,27.6189523 3.69186209,28.3662561 C4.09833621,30.3501327 4.77079856,32.2393042 5.72231481,34.0271608 C6.87269291,36.188549 8.35199021,38.0934647 10.1638028,39.7377014 C11.1998263,40.6780206 12.3196379,41.5042853 13.5207204,42.2215432 C14.8360376,43.0069453 16.2202792,43.6389927 17.6722465,44.1215313 C19.2361709,44.6412067 20.8403712,44.9727943 22.4819705,45.1114866 C23.079515,45.1619638 23.6801761,45.1793905 24.2795187,45.2122007 Z" id="Shape" fill="#3F4C88" fill-rule="nonzero"></path>
                        <path d="M26.5404786,22.9655685 C26.3361027,23.2357421 26.1395184,23.4881284 25.9507255,23.7461633 C25.3530611,24.5626931 24.8396642,25.4264552 24.5118239,26.3904507 C24.327586,26.9319996 24.2799982,27.4902541 24.3342986,28.0576425 C24.343049,28.1494631 24.3242296,28.2121991 24.2518291,28.270969 C23.9640248,28.5049672 23.6800563,28.7437727 23.3942897,28.9801746 C23.3863784,28.9867847 23.374032,28.9878663 23.3428661,28.9990434 C23.3214097,28.8036243 23.2879664,28.6160172 23.282812,28.4275687 C23.2699861,27.9614954 23.36672,27.5103248 23.5279431,27.0774222 C23.8554239,26.1977958 24.2189851,25.333553 24.7245905,24.5380554 C24.9132635,24.241201 25.1109267,23.9499953 25.3005587,23.6539822 C25.3272894,23.6122784 25.3319642,23.5563928 25.346708,23.5071174 C25.2918083,23.4990651 25.2341515,23.4762301 25.1821286,23.4854843 C24.9235722,23.5312744 24.7181176,23.673452 24.5307631,23.8525261 C24.0523679,24.3098261 23.5805654,24.7763802 23.2540436,25.3581907 C23.0158648,25.7828006 22.8222772,26.232529 22.6067536,26.6699986 C22.3616225,27.16744 22.128718,27.671852 21.8612913,28.1570346 C21.7355493,28.3850236 21.564377,28.5997923 21.373906,28.777304 C21.0105845,29.1158622 20.57714,29.0871383 20.1482504,28.9171982 C19.8666793,28.8055473 19.8697959,28.7917261 19.7144463,29.0487996 C19.5197798,29.371133 19.2974237,29.6701506 19.035511,29.9423673 C18.5590337,30.4375252 17.9729966,30.7170731 17.3065276,30.8242772 C16.9466824,30.8820856 16.5791655,30.9162179 16.215005,30.916939 C15.6877034,30.9181408 15.1643575,30.8383387 14.6684614,30.6539765 C14.231301,30.4913676 13.8588695,30.21855 13.5494889,29.8654496 C13.4619849,29.7654565 13.3885055,29.6514019 13.2918914,29.5619851 C13.151885,29.4320662 13.1215583,29.2793124 13.1282709,29.0975943 C13.139179,28.8044656 13.1305484,28.5106158 13.1323465,28.2170064 C13.1325862,28.1847971 13.1479294,28.152708 13.1563202,28.1204987 C13.1900032,28.1343199 13.2290803,28.1412905 13.2564104,28.163164 C13.8026512,28.598951 14.33247,29.0573327 14.8978898,29.4663187 C15.2708007,29.7358913 15.6754768,29.989239 16.1479985,30.0468072 C16.4399982,30.0823816 16.7419469,30.0808192 17.0351453,30.0524558 C17.6118327,29.9966904 18.1402131,29.7882915 18.6035049,29.4378351 C18.9067723,29.2082837 19.1712022,28.9363074 19.3506454,28.5933024 C19.4144154,28.4713157 19.3996716,28.4090604 19.289872,28.3197637 C19.1323648,28.1916476 18.9731794,28.0655747 18.8147132,27.9386604 C18.7994899,27.9264016 18.7807905,27.9167869 18.7695228,27.9017639 C18.7188184,27.8337398 18.6520517,27.7655955 18.7011978,27.6720924 C18.7344013,27.6088756 18.8866344,27.6041885 18.9704224,27.6520217 C19.1224157,27.7390348 19.2753679,27.8243655 19.4290394,27.908374 C19.4550508,27.9225557 19.4865763,27.9265218 19.5224169,27.9373384 C19.6196303,27.772446 19.6184316,27.5906077 19.6129177,27.4206676 C19.5851082,26.5624339 19.2916701,25.8056356 18.7318841,25.1500321 C18.4795609,24.8544997 18.2182475,24.569183 17.9013152,24.3451601 C17.298017,23.9188677 16.6420965,23.6191289 15.895915,23.5464176 C14.8740359,23.4465447 13.9225197,23.6567464 13.0374106,24.1789457 C12.4682749,24.5146195 12.0226038,24.9760057 11.6410623,25.5103436 C11.277621,26.0190823 11.0637756,26.5843074 10.9961697,27.2009713 C10.9406706,27.707787 10.9888577,28.2121991 11.1577525,28.6953386 C11.2888886,29.0707933 11.4261381,29.4460076 11.6463365,29.7831236 C12.0145726,30.3465459 12.4414244,30.8566066 12.9817916,31.2624679 C13.2874563,31.491899 13.5971965,31.7162825 13.9096938,31.9363393 C14.3474536,32.244491 14.8428701,32.4421936 15.3405642,32.6176621 C15.8491663,32.7969766 16.3719129,32.9518937 16.900533,33.0535693 C17.3796474,33.1455101 17.8745845,33.157889 18.3634083,33.1935836 C18.8945457,33.2322829 19.4200492,33.1575285 19.9472309,33.102364 C20.8576323,33.0071783 21.7399844,32.7833958 22.6121477,32.521515 C23.4728036,32.2632397 24.284673,31.8830978 25.0668151,31.4407007 C26.0087418,30.9076848 26.8729938,30.2697484 27.6514199,29.5151133 C28.3768642,28.8120372 28.9943069,28.0211066 29.5160945,27.1593876 C29.8432157,26.6189204 30.1222696,26.0494888 30.4209819,25.4919554 C30.7786695,24.823973 31.1286856,24.1519043 31.4926064,23.4874073 C31.9398358,22.6701564 32.4861965,21.9240544 33.1519462,21.2715757 C33.4222497,21.0065701 33.7155679,20.7653609 34.0595906,20.5961418 C34.349073,20.453844 34.6586934,20.4087751 34.9719098,20.4546853 C35.3155728,20.5050424 35.5856366,20.6833954 35.7200092,21.0208719 C35.8773965,21.416157 35.957229,21.8275467 35.8408366,22.2444648 C35.7413458,22.601291 35.528699,22.897304 35.2392166,23.1321435 C35.206013,23.1591849 35.1607027,23.1712033 35.1210262,23.1900722 C35.1120361,23.1812987 35.1031658,23.1725253 35.0941757,23.1637519 C35.1183891,23.1248123 35.1405648,23.0840699 35.1676551,23.0471734 C35.4602541,22.6505664 35.5990618,22.2175436 35.4527024,21.729116 C35.3484168,21.3804623 34.9111365,21.1307201 34.5498528,21.1596844 C34.0896775,21.1967011 33.7358257,21.4242093 33.4144582,21.7276738 C32.9270729,22.1879783 32.5675872,22.7491172 32.1901212,23.2953533 C31.6179888,24.1239015 31.1609302,25.0172288 30.7078272,25.9147626 C30.2049788,26.911328 29.72982,27.9258007 29.0723413,28.8359538 C28.5703319,29.5309776 28.0407528,30.2031665 27.4171969,30.7945917 C26.2031686,31.9461944 24.8396642,32.8666833 23.2630337,33.4446479 C22.4987521,33.7247967 21.7184081,33.9609582 20.9085764,34.0650375 C20.108574,34.1677948 19.3055748,34.2498804 18.5024558,34.3239137 C18.1149209,34.3596084 17.7234303,34.373069 17.3342173,34.3662185 C16.6829716,34.3545607 16.0323254,34.3200679 15.3894705,34.1967591 C14.3963599,34.0065079 13.4811638,33.6257652 12.6474783,33.0560932 C12.0035447,32.6160997 11.4413614,32.0795986 11.0080367,31.4310859 C10.5645232,30.7674301 10.247471,30.0410383 10.1578093,29.2338829 C10.0450131,28.217367 10.1761492,27.23282 10.6173852,26.3093265 C10.9684801,25.574642 11.4430395,24.9234853 12.0520914,24.3712401 C12.4959645,23.968744 12.9822711,23.636195 13.5123296,23.36506 C14.3667524,22.9280711 15.2693623,22.7369786 16.2287898,22.8511534 C17.3792878,22.9879227 18.3753952,23.4482273 19.1958951,24.2743718 C19.7362624,24.8185647 20.0735724,25.4751297 20.237073,26.221472 C20.3712059,26.8339295 20.3171452,27.4401374 20.1426166,28.0382929 C20.0825625,28.2444084 20.1110912,28.2796223 20.3322486,28.2789012 C20.7556242,28.2775792 21.075793,28.0888903 21.3193658,27.7491303 C21.8895803,26.9535125 22.3605437,26.0963606 22.849847,25.2511068 C23.1724131,24.6938138 23.5329776,24.1663264 23.9657029,23.6911191 C24.3003758,23.3235965 24.6802391,23.0054696 25.1555178,22.8414185 C25.6209672,22.6806124 26.0819815,22.7243593 26.5404786,22.9655685 Z" id="Path" fill="#3F4C88" fill-rule="nonzero"></path>
                        <path d="M12.1942555,22.6681132 C12.0163706,22.9237445 11.8416023,23.1817795 11.6574843,23.4328437 C11.6245204,23.4779127 11.5557159,23.5021899 11.4986585,23.5231019 C10.6846315,23.820437 9.84111673,23.9575669 8.97758398,23.9735514 C8.49607217,23.9823248 8.02822537,23.9127383 7.59921596,23.6724905 C7.10212124,23.3941445 6.83397538,22.9694144 6.78027429,22.4010645 C6.72273741,21.7922126 6.91620518,21.2531875 7.26394374,20.7756967 C8.02942405,19.7243274 8.97878266,18.8686177 10.0759391,18.1714306 C11.3953319,17.3332677 12.823685,16.7592691 14.3238395,16.3442739 C15.6269301,15.983722 16.9491996,15.7302541 18.290768,15.5752168 C18.956278,15.498299 19.6223873,15.4259483 20.2894555,15.3660967 C20.7398015,15.3258351 21.1923052,15.3086487 21.6440896,15.2858138 C22.2907802,15.2530036 22.9377106,15.2002428 23.5845211,15.1998795 C24.3838043,15.1996419 25.1852452,15.2149053 25.9817714,15.2757183 C27.6213329,15.4007097 29.2058748,15.7921488 30.7684807,16.301248 C32.226801,16.7764554 33.6283036,17.3961239 35.0636092,17.928058 C36.291782,18.3831947 37.527027,18.8233083 38.8198089,19.0573065 C39.3547821,19.1541748 39.9011427,19.1940758 40.4441471,19.2355393 C40.7930843,19.2622201 41.1454977,19.2481586 41.4961131,19.2456347 C41.7691736,19.2435916 41.9939271,19.1020149 42.2177216,18.9677694 C42.5569495,18.764298 42.7522153,18.4436472 42.918353,18.0582173 C42.9912331,18.1405433 43.0711854,18.2007554 43.1111016,18.2810383 C43.2968978,18.6554113 43.282993,19.0457688 43.1646828,19.4348043 C43.078857,19.7169962 42.952156,19.9814009 42.7613253,20.2102312 C42.62935,20.3682731 42.4574586,20.4610551 42.2550007,20.4693478 C41.7137944,20.4914616 41.1712695,20.5282379 40.6307824,20.5117727 C39.6974861,20.4832891 38.780492,20.3244059 37.8739265,20.0960564 C36.6827931,19.7960773 35.5053247,19.4524713 34.3616592,19.0037044 C33.4474221,18.6449553 32.5463705,18.2526749 31.6350102,17.886835 C30.3569721,17.3737696 29.0446516,16.9674277 27.7070389,16.6406475 C27.0046094,16.4690248 26.292111,16.3579749 25.5756569,16.2761296 C24.7016956,16.1762567 23.8237786,16.1822659 22.9457418,16.2161578 C22.6377996,16.2281762 22.329258,16.229378 22.0215555,16.2438001 C20.9688703,16.292715 19.9197811,16.3817713 18.8754866,16.5271939 C17.6432383,16.6986964 16.4241755,16.9450735 15.2283673,17.2819491 C13.7989352,17.6845654 12.3878431,18.1497974 11.0791187,18.8745067 C10.4214002,19.2387843 9.7910117,19.6448858 9.25519945,20.1788632 C8.74623775,20.6860394 8.35151074,21.265927 8.21761761,21.989795 C8.1757835,22.2157408 8.15085085,22.4473353 8.23104289,22.673161 C8.30536136,22.8821609 8.46286859,23.0143632 8.65561715,23.1017369 C8.98669398,23.2519669 9.34054583,23.2308145 9.69128109,23.2185557 C10.5206513,23.1895914 11.3027934,22.9563144 12.0704313,22.6612627 C12.1014773,22.6492444 12.1354,22.6446774 12.1678844,22.6365049 C12.1769944,22.6468407 12.185625,22.657537 12.1942555,22.6681132 Z" id="Path" fill="#3F4C88" fill-rule="nonzero"></path>
                        <path d="M28.1488742,24.8111133 C27.9938843,24.653432 27.8086874,24.6158144 27.61486,24.6184585 C27.5361064,24.6194199 27.4481229,24.6322796 27.3812363,24.6696568 C27.2107833,24.7647223 27.187289,25.0240793 27.3503102,25.1859671 C27.4451262,25.2800711 27.5785399,25.3509797 27.7073985,25.3912413 C27.9659549,25.4723655 28.2341008,25.4450837 28.4946949,25.3863137 C28.6804911,25.3443695 28.8216962,25.2268296 28.926701,25.0679464 C29.1653592,24.7075148 29.2117483,24.3153545 29.0772559,23.9120172 C28.9529522,23.5387258 28.7597242,23.4507511 28.3735078,23.4366896 C28.0680829,23.4256327 27.7917859,23.5386056 27.5257977,23.6686447 C26.6638233,24.0900096 26.0771868,24.7733756 25.6926486,25.641945 C25.5278294,26.0141547 25.3694831,26.3906911 25.3182992,26.7984752 C25.2861745,27.0537459 25.2593239,27.3164681 25.3981316,27.5538314 C25.5003795,27.7282183 25.6542907,27.8321774 25.8601049,27.8548922 C26.0957664,27.8809721 26.3150059,27.8295334 26.5329268,27.7427606 C27.1239985,27.5075606 27.7035627,27.2498862 28.2423717,26.9082032 C28.3246015,26.8560433 28.4003584,26.7939082 28.4797113,26.7373016 C28.5306555,26.701006 28.5800413,26.6754068 28.6312251,26.741508 C28.6802514,26.8047248 28.7020674,26.8650571 28.6308655,26.9250289 C28.4877425,27.045934 28.3483354,27.1721271 28.1986197,27.2841386 C27.5019439,27.8053764 26.733347,28.1857586 25.903737,28.4433128 C25.6433826,28.5240764 25.3801514,28.5181874 25.1187181,28.4541294 C24.817129,28.3804566 24.5803887,28.0406966 24.5861423,27.6814667 C24.5933345,27.221042 24.6858729,26.7731164 24.829835,26.3380505 C25.0577051,25.6493964 25.3392762,24.9829764 25.7735598,24.3968392 C26.3957973,23.5569938 27.2245682,23.0527019 28.2719792,22.9626841 C28.6937965,22.9262684 29.0909209,23.0561872 29.4309878,23.323236 C29.768178,23.5881214 29.8482501,23.9443467 29.7631435,24.3443189 C29.6857084,24.707635 29.4969155,25.0201132 29.2605348,25.3003822 C28.9812412,25.6313688 28.5904698,25.7605666 28.1863931,25.8469788 C27.8878006,25.9109167 27.5842936,25.9216131 27.2818653,25.8523871 C27.0364945,25.796141 26.8292418,25.6740341 26.680485,25.4742884 C26.5380812,25.2831959 26.5553423,25.0631391 26.6574702,24.8624319 C26.897447,24.3916713 27.2491412,24.0678958 27.810845,24.0579205 C28.0061108,24.0544352 28.187352,24.1130849 28.3518116,24.2193275 C28.428048,24.268603 28.4393156,24.3427565 28.39892,24.4139054 C28.3238823,24.5452664 28.238416,24.6702577 28.1488742,24.8111133 Z" id="Path" fill="#3F4C88" fill-rule="nonzero"></path>
                        <path d="M31.4836162,28.7455755 C31.1618892,28.7555507 30.8951817,28.6336842 30.66887,28.4172329 C30.5359358,28.2899581 30.5048898,28.1238639 30.5045244,27.9456311 C30.5030918,27.3503599 30.770039,26.847991 31.0516101,26.3517515 C31.2766033,25.9553848 31.5397147,25.587021 31.8882923,25.2886042 C32.1835285,25.0359775 32.5029781,24.8222904 32.868577,24.6808339 C33.2124798,24.5479105 33.4809852,24.6688155 33.6452051,24.9880241 C33.7587206,25.2084415 33.7686697,25.6385799 33.4624056,25.8430128 C33.275171,25.9680041 33.0244061,25.9433664 32.8812831,25.7707822 C32.7986937,25.6711497 32.7344442,25.5621429 32.7326461,25.4229699 C32.730968,25.2902868 32.6646807,25.2442563 32.5432539,25.2972574 C32.4592261,25.3339135 32.3797532,25.3899193 32.3111884,25.4516938 C31.8772644,25.8440944 31.5608116,26.3202633 31.3565556,26.8663792 C31.2622191,27.1182847 31.1988087,27.3828096 31.24316,27.658752 C31.2828365,27.9065713 31.421884,28.0394947 31.6748065,28.0396149 C31.7971923,28.0397351 31.9247324,28.0170203 32.0414843,27.978922 C32.8881156,27.7012971 33.6841624,27.3224773 34.3885097,26.7675879 C34.464866,26.707496 34.522283,26.7350181 34.5737066,26.7821302 C34.6404734,26.8431836 34.5798199,26.8955839 34.5412222,26.9414941 C34.2188958,27.3244002 33.8300424,27.6285858 33.4175748,27.9076529 C32.9194013,28.2447689 32.3882639,28.5092938 31.8143335,28.6872863 C31.7584747,28.7047129 31.7015372,28.7193754 31.6440003,28.7294708 C31.5904191,28.7390855 31.5355193,28.7407681 31.4836162,28.7455755 Z" id="Path" fill="#3F4C88" fill-rule="nonzero"></path>
                        <path d="M35.7282801,26.1148689 C36.0230368,26.1148689 36.2600168,26.3618469 36.2604984,26.6701188 C36.2613354,26.9666126 36.0097314,27.2341421 35.7288794,27.236196 C35.4354413,27.2381081 35.1982215,26.9824769 35.1992967,26.665071 C35.2006189,26.3457423 35.4226154,26.1148689 35.7282801,26.1148689 Z" id="Path" fill="#3F4C88" fill-rule="nonzero"></path>
                    </g>
                    <path d="M61.48,22.96 C61.48,24.7706757 61.4380004,26.3433267 61.354,27.678 C61.2699996,29.0126733 61.1486675,30.146662 60.99,31.08 C60.8313325,32.013338 60.6400011,32.7739971 60.416,33.362 C60.1919989,33.9500029 59.9493346,34.4073317 59.688,34.734 C59.4266654,35.0606683 59.1513348,35.2799994 58.862,35.392 C58.5726652,35.5040006 58.2786682,35.56 57.98,35.56 C57.8679994,35.56 57.7653338,35.5553334 57.672,35.546 C57.5786662,35.5366666 57.4853338,35.5226668 57.392,35.504 C57.2986662,35.4853332 57.214667,35.4573335 57.14,35.42 L56.72,33.32 C56.794667,33.3573335 56.8786662,33.3853332 56.972,33.404 C57.0653338,33.4226668 57.1586662,33.4366666 57.252,33.446 C57.3453338,33.4553334 57.4479994,33.46 57.56,33.46 C58.0453358,33.46 58.4933313,33.3386679 58.904,33.096 C59.3146687,32.8533321 59.6693318,32.363337 59.968,31.626 C60.2666682,30.888663 60.4999992,29.8293402 60.668,28.448 C60.8360008,27.0666598 60.92,25.2373447 60.92,22.96 L60.92,16.24 L59.1,15.68 L59.1,15.4 L70.72,15.4 L70.72,15.68 L69.04,16.1 L69.04,34.3 L70.72,34.72 L70.72,35 L64.98,35 L64.98,34.72 L66.66,34.3 L66.66,15.96 L61.48,15.96 L61.48,22.96 Z M82.9,34.44 C82.9,33.6559961 83.0586651,32.9280034 83.376,32.256 C83.6933349,31.5839966 84.0946642,31.0053358 84.58,30.52 L84.86,30.52 C84.8226665,30.7626679 84.7946668,31.0146654 84.776,31.276 C84.7573332,31.5000011 84.7433334,31.7426654 84.734,32.004 C84.7246666,32.2653346 84.72,32.5173321 84.72,32.76 C84.72,33.1146684 84.7246666,33.427332 84.734,33.698 C84.7433334,33.968668 84.7573332,34.2066656 84.776,34.412 C84.7946668,34.6360011 84.8226665,34.8319992 84.86,35 L73.24,35 L73.24,34.72 L74.92,34.3 L74.92,16.1 L73.24,15.68 L73.24,15.4 L84.58,15.4 C84.5426665,15.5680008 84.5146668,15.7639989 84.496,15.988 C84.4773332,16.1933344 84.4633334,16.431332 84.454,16.702 C84.4446666,16.972668 84.44,17.2853316 84.44,17.64 C84.44,17.9013346 84.4446666,18.1579987 84.454,18.41 C84.4633334,18.6620013 84.4773332,18.9 84.496,19.124 C84.5146668,19.3853346 84.5426665,19.6373321 84.58,19.88 L84.3,19.88 C83.8146642,19.3946642 83.4133349,18.8160034 83.096,18.144 C82.7786651,17.4719966 82.62,16.7440039 82.62,15.96 L77.3,15.96 L77.3,24.36 L79.96,24.36 L81.22,21.84 L81.5,21.84 L81.5,27.44 L81.22,27.44 L79.96,24.92 L77.3,24.92 L77.3,34.44 L82.9,34.44 Z M91.44,24.92 L91.44,34.3 L93.12,34.72 L93.12,35 L87.38,35 L87.38,34.72 L89.06,34.3 L89.06,16.1 L87.38,15.68 L87.38,15.4 L93.12,15.4 L93.12,15.68 L91.44,16.1 L91.44,24.36 L97.18,24.36 L97.18,16.1 L95.5,15.68 L95.5,15.4 L101.24,15.4 L101.24,15.68 L99.56,16.1 L99.56,34.3 L101.24,34.72 L101.24,35 L95.5,35 L95.5,34.72 L97.18,34.3 L97.18,24.92 L91.44,24.92 Z M110.48,15.54 C109.957331,15.54 109.444003,15.6893318 108.94,15.988 C108.435997,16.2866682 107.988002,16.804663 107.596,17.542 C107.203998,18.279337 106.886668,19.2686605 106.644,20.51 C106.401332,21.7513395 106.28,23.3146572 106.28,25.2 C106.28,27.0853428 106.401332,28.6486605 106.644,29.89 C106.886668,31.1313395 107.213331,32.120663 107.624,32.858 C108.034669,33.595337 108.510664,34.1133318 109.052,34.412 C109.593336,34.7106682 110.162664,34.86 110.76,34.86 C111.245336,34.86 111.739997,34.7293346 112.244,34.468 C112.748003,34.2066654 113.209998,33.842669 113.63,33.376 C114.050002,32.909331 114.404665,32.3586698 114.694,31.724 C114.983335,31.0893302 115.165333,30.4080036 115.24,29.68 L115.66,29.68 C115.585333,30.5200042 115.398668,31.2899965 115.1,31.99 C114.801332,32.6900035 114.423336,33.2966641 113.966,33.81 C113.508664,34.3233359 112.981336,34.7199986 112.384,35 C111.786664,35.2800014 111.152003,35.42 110.48,35.42 C109.602662,35.42 108.753337,35.2100021 107.932,34.79 C107.110663,34.3699979 106.378003,33.7353376 105.734,32.886 C105.089997,32.0366624 104.576669,30.9726731 104.194,29.694 C103.811331,28.4153269 103.62,26.9173419 103.62,25.2 C103.62,23.4826581 103.811331,21.9846731 104.194,20.706 C104.576669,19.4273269 105.080664,18.3633376 105.706,17.514 C106.331336,16.6646624 107.035996,16.0300021 107.82,15.61 C108.604004,15.1899979 109.397329,14.98 110.2,14.98 C110.648002,14.98 111.053998,15.0546659 111.418,15.204 C111.782002,15.3533341 112.094665,15.5213324 112.356,15.708 C112.654668,15.9133344 112.915999,16.1466654 113.14,16.408 C113.289334,16.1279986 113.489999,15.8620013 113.742,15.61 C113.994001,15.3579987 114.259999,15.194667 114.54,15.12 L114.96,15.12 C114.922666,15.4000014 114.894667,15.6799986 114.876,15.96 C114.857333,16.2213346 114.843333,16.4966652 114.834,16.786 C114.824667,17.0753348 114.82,17.3599986 114.82,17.64 C114.82,17.9573349 114.824667,18.2699985 114.834,18.578 C114.843333,18.8860015 114.857333,19.1706654 114.876,19.432 C114.894667,19.7306682 114.922666,20.0199986 114.96,20.3 L114.54,20.3 C114.110665,18.7506589 113.53667,17.5700041 112.818,16.758 C112.09933,15.9459959 111.320004,15.54 110.48,15.54 Z M121.54,24.92 L121.54,34.3 L123.22,34.72 L123.22,35 L117.48,35 L117.48,34.72 L119.16,34.3 L119.16,16.1 L117.48,15.68 L117.48,15.4 L123.22,15.4 L123.22,15.68 L121.54,16.1 L121.54,24.36 L127.28,24.36 L127.28,16.1 L125.6,15.68 L125.6,15.4 L131.34,15.4 L131.34,15.68 L129.66,16.1 L129.66,34.3 L131.34,34.72 L131.34,35 L125.6,35 L125.6,34.72 L127.28,34.3 L127.28,24.92 L121.54,24.92 Z M136.38,28.728 L141.812,28.728 L139.012,19.46 L136.38,28.728 Z M141.98,29.26 L136.24,29.26 L134.84,34.02 L136.66,34.72 L136.66,35 L132.46,35 L132.46,34.72 L134.28,34.02 L139.74,14.98 L140.16,14.98 L146.04,34.3 L147.72,34.72 L147.72,35 L141.84,35 L141.84,34.72 L143.52,34.3 L141.98,29.26 Z M152.48,22.4 L153.46,22.4 C154.617339,22.4 155.648662,22.5586651 156.554,22.876 C157.459338,23.1933349 158.219997,23.6319972 158.836,24.192 C159.452003,24.7520028 159.923332,25.4146628 160.25,26.18 C160.576668,26.9453372 160.74,27.7853288 160.74,28.7 C160.74,29.6146712 160.576668,30.4546628 160.25,31.22 C159.923332,31.9853372 159.452003,32.6479972 158.836,33.208 C158.219997,33.7680028 157.459338,34.2066651 156.554,34.524 C155.648662,34.8413349 154.617339,35 153.46,35 L148.42,35 L148.42,34.72 L150.1,34.3 L150.1,16.1 L148.42,15.68 L148.42,15.4 L158.64,15.4 C158.602666,15.5680008 158.574667,15.7639989 158.556,15.988 C158.537333,16.1933344 158.523333,16.431332 158.514,16.702 C158.504667,16.972668 158.5,17.2853316 158.5,17.64 C158.5,17.9013346 158.504667,18.1579987 158.514,18.41 C158.523333,18.6620013 158.537333,18.9 158.556,19.124 C158.574667,19.3853346 158.602666,19.6373321 158.64,19.88 L158.36,19.88 C157.874664,19.3946642 157.473335,18.8160034 157.156,18.144 C156.838665,17.4719966 156.68,16.7440039 156.68,15.96 L152.48,15.96 L152.48,22.4 Z M152.48,34.44 L153.46,34.44 C154.934674,34.44 156.073329,33.9920045 156.876,33.096 C157.678671,32.1999955 158.08,30.7346768 158.08,28.7 C158.08,26.6653232 157.678671,25.2000045 156.876,24.304 C156.073329,23.4079955 154.934674,22.96 153.46,22.96 L152.48,22.96 L152.48,34.44 Z M168.58,34.72 L168.58,35 L162.84,35 L162.84,34.72 L164.52,34.3 L164.52,16.1 L162.84,15.68 L162.84,15.4 L176.7,15.4 L176.7,15.68 L175.02,16.1 L175.02,34.3 L176.7,34.72 L176.7,35 L170.96,35 L170.96,34.72 L172.64,34.3 L172.64,15.96 L166.9,15.96 L166.9,34.3 L168.58,34.72 Z M188.88,34.44 C188.88,33.6559961 189.038665,32.9280034 189.356,32.256 C189.673335,31.5839966 190.074664,31.0053358 190.56,30.52 L190.84,30.52 C190.802666,30.7626679 190.774667,31.0146654 190.756,31.276 C190.737333,31.5000011 190.723333,31.7426654 190.714,32.004 C190.704667,32.2653346 190.7,32.5173321 190.7,32.76 C190.7,33.1146684 190.704667,33.427332 190.714,33.698 C190.723333,33.968668 190.737333,34.2066656 190.756,34.412 C190.774667,34.6360011 190.802666,34.8319992 190.84,35 L179.22,35 L179.22,34.72 L180.9,34.3 L180.9,16.1 L179.22,15.68 L179.22,15.4 L190.56,15.4 C190.522666,15.5680008 190.494667,15.7639989 190.476,15.988 C190.457333,16.1933344 190.443333,16.431332 190.434,16.702 C190.424667,16.972668 190.42,17.2853316 190.42,17.64 C190.42,17.9013346 190.424667,18.1579987 190.434,18.41 C190.443333,18.6620013 190.457333,18.9 190.476,19.124 C190.494667,19.3853346 190.522666,19.6373321 190.56,19.88 L190.28,19.88 C189.794664,19.3946642 189.393335,18.8160034 189.076,18.144 C188.758665,17.4719966 188.6,16.7440039 188.6,15.96 L183.28,15.96 L183.28,24.36 L185.94,24.36 L187.2,21.84 L187.48,21.84 L187.48,27.44 L187.2,27.44 L185.94,24.92 L183.28,24.92 L183.28,34.44 L188.88,34.44 Z M202.32,25.9 C202.039999,26.0866676 201.732002,26.2546659 201.396,26.404 C201.097332,26.5346673 200.752002,26.6466662 200.36,26.74 C199.967998,26.8333338 199.548002,26.88 199.1,26.88 C197.475992,26.88 196.253337,26.4926705 195.432,25.718 C194.610663,24.9433295 194.2,23.8840067 194.2,22.54 L194.2,16.1 L192.52,15.68 L192.52,15.4 L198.26,15.4 L198.26,15.68 L196.58,16.1 L196.58,22.54 C196.58,23.8840067 196.836664,24.8499971 197.35,25.438 C197.863336,26.0260029 198.539996,26.32 199.38,26.32 C199.753335,26.32 200.121998,26.2733338 200.486,26.18 C200.850002,26.0866662 201.162665,25.9746673 201.424,25.844 C201.741335,25.6946659 202.039999,25.5266676 202.32,25.34 L202.32,16.1 L200.64,15.68 L200.64,15.4 L206.38,15.4 L206.38,15.68 L204.7,16.1 L204.7,34.3 L206.38,34.72 L206.38,35 L200.64,35 L200.64,34.72 L202.32,34.3 L202.32,25.9 Z M211.42,28.728 L216.852,28.728 L214.052,19.46 L211.42,28.728 Z M217.02,29.26 L211.28,29.26 L209.88,34.02 L211.7,34.72 L211.7,35 L207.5,35 L207.5,34.72 L209.32,34.02 L214.78,14.98 L215.2,14.98 L221.08,34.3 L222.76,34.72 L222.76,35 L216.88,35 L216.88,34.72 L218.56,34.3 L217.02,29.26 Z M230.32,34.3 L232,34.72 L232,35 L226.26,35 L226.26,34.72 L227.94,34.3 L227.94,15.96 L225,15.96 C225,16.7440039 224.841335,17.4719966 224.524,18.144 C224.206665,18.8160034 223.805336,19.3946642 223.32,19.88 L223.04,19.88 C223.058667,19.6373321 223.077333,19.3853346 223.096,19.124 C223.114667,18.9 223.133333,18.6620013 223.152,18.41 C223.170667,18.1579987 223.18,17.9013346 223.18,17.64 C223.18,17.2853316 223.170667,16.972668 223.152,16.702 C223.133333,16.431332 223.114667,16.1933344 223.096,15.988 C223.077333,15.7639989 223.058667,15.5680008 223.04,15.4 L235.22,15.4 C235.182666,15.5680008 235.154667,15.7639989 235.136,15.988 C235.117333,16.1933344 235.103333,16.431332 235.094,16.702 C235.084667,16.972668 235.08,17.2853316 235.08,17.64 C235.08,17.9013346 235.084667,18.1579987 235.094,18.41 C235.103333,18.6620013 235.117333,18.9 235.136,19.124 C235.154667,19.3853346 235.182666,19.6373321 235.22,19.88 L234.94,19.88 C234.454664,19.3946642 234.053335,18.8160034 233.736,18.144 C233.418665,17.4719966 233.26,16.7440039 233.26,15.96 L230.32,15.96 L230.32,34.3 Z M242.36,22.96 C243.517339,22.96 244.548662,23.1139985 245.454,23.422 C246.359338,23.7300015 247.119997,24.1593306 247.736,24.71 C248.352003,25.2606694 248.823332,25.9 249.15,26.628 C249.476668,27.3560036 249.64,28.1399958 249.64,28.98 C249.64,29.8200042 249.476668,30.6039964 249.15,31.332 C248.823332,32.0600036 248.352003,32.6993306 247.736,33.25 C247.119997,33.8006694 246.359338,34.2299985 245.454,34.538 C244.548662,34.8460015 243.517339,35 242.36,35 L237.32,35 L237.32,34.72 L239,34.3 L239,16.1 L237.32,15.68 L237.32,15.4 L243.06,15.4 L243.06,15.68 L241.38,16.1 L241.38,22.96 L242.36,22.96 Z M241.38,34.44 L242.36,34.44 C243.834674,34.44 244.973329,34.0060043 245.776,33.138 C246.578671,32.2699957 246.98,30.8840095 246.98,28.98 C246.98,27.0759905 246.578671,25.6900043 245.776,24.822 C244.973329,23.9539957 243.834674,23.52 242.36,23.52 L241.38,23.52 L241.38,34.44 Z" id="ЛЕНСНАБПЕЧАТЬ" stroke="#32428D" fill="#3F4C88" fill-rule="nonzero"></path>
                </g>
            </g>
        </g>
    </g>
</svg>