<?xml version="1.0" encoding="UTF-8"?>
<svg width="305px" height="103px" viewBox="0 0 305 103" version="1.1" xmlns="http://www.w3.org/2000/svg" xmlns:xlink="http://www.w3.org/1999/xlink">
    <!-- Generator: Sketch 56.2 (81672) - https://sketch.com -->
    <title>Desktop 1920px/Logo@2x</title>
    <desc>Created with Sketch.</desc>
    <g id="-Desktop-1920-px" stroke="none" stroke-width="1" fill="none" fill-rule="evenodd">
        <g id="Страница-по-умолчанию" transform="translate(-352.000000, -13.000000)">
            <g id="Desktop-1920px/Header">
                <g id="Desktop-1920px/Logo" transform="translate(352.000000, 13.000000)">
                    <g id="logo">
                        <path d="M51.042541,5.90698679 C51.6100762,5.90698679 52.1778534,5.90698679 52.7453886,5.90698679 C53.0425883,5.93588411 53.3388199,5.97983717 53.6367457,5.99100756 C56.0397551,6.08279905 58.4217089,6.34967429 60.782365,6.81640242 C64.6883142,7.589345 68.4367088,8.83435807 72.0183522,10.5805818 C78.1232886,13.5572485 83.3252511,17.6813088 87.6191572,22.9564051 C90.353249,26.3155363 92.5645792,29.9920524 94.2536318,33.983525 C96.478273,39.2401659 97.6866753,44.7233715 97.8720621,50.4321705 C97.8754503,50.5409604 97.9018304,50.6487789 97.9175617,50.7568403 C97.9175617,51.5319684 97.9175617,52.3070965 97.9175617,53.0824674 C97.9020724,53.1905288 97.8802907,53.2985902 97.87182,53.4073802 C97.7595231,54.8160638 97.6811088,56.228147 97.5310569,57.6327025 C97.3047689,59.7494918 96.8773628,61.8320415 96.315394,63.8842368 C93.9201292,72.6306539 89.3590338,80.0446376 82.6485651,86.1167171 C78.7080072,89.6822578 74.2601768,92.4542149 69.3454912,94.4622143 C65.364032,96.0892063 61.2380873,97.1596212 56.9574922,97.6040086 C54.7931138,97.8291163 52.6258311,97.9750599 50.4445113,97.8747692 C47.4011188,97.7344108 44.390399,97.3776867 41.4220325,96.6766232 C36.3306728,95.4741062 31.5716056,93.4799483 27.1615303,90.6574816 C21.6120281,87.1062682 17.0267308,82.5696319 13.4165292,77.0468443 C10.4179102,72.4596984 8.30822815,67.4898451 7.08893501,62.1418984 C6.50808873,59.5940776 6.13900932,57.0146884 6.00952901,54.4017879 C5.98847333,53.977313 5.94878217,53.5538094 5.91756168,53.1295774 C5.91756168,52.3228808 5.91756168,51.5159413 5.91756168,50.7092447 C5.93305091,50.6006977 5.95870496,50.4926363 5.96257727,50.3836035 C6.02187199,48.6602063 6.18329885,46.9470081 6.43015852,45.2401235 C6.94662767,41.6733687 7.8745296,38.2171036 9.2162845,34.8756993 C11.9039086,28.1831774 15.9311095,22.4282398 21.3022434,17.6307992 C26.1356105,13.3136854 31.6444534,10.1716483 37.8026341,8.17579059 C40.323749,7.35889495 42.8942358,6.74500904 45.520871,6.40649759 C47.0494648,6.20955872 48.5930638,6.12918046 50.1298862,5.99537859 C50.4343465,5.96915245 50.7383227,5.93685544 51.042541,5.90698679 Z" id="Path" fill="#767676"></path>
                        <path d="M50.94743,0.906986787 C51.5766538,0.906986787 52.206146,0.906986787 52.8353698,0.906986787 C53.1648738,0.939025119 53.4933045,0.987755691 53.8236135,1.00014026 C56.4878196,1.10190908 59.1286814,1.3977925 61.7459305,1.91525195 C66.0764394,2.77221002 70.2322683,4.1525506 74.2032207,6.08858124 C80.9717372,9.38879868 86.7391303,13.9611264 91.4997654,19.8096027 C94.5310411,23.5338569 96.9827333,27.6099943 98.8553785,32.0353226 C101.321829,37.8633375 102.661579,43.9425437 102.867116,50.2718643 C102.870873,50.3924792 102.900121,50.5120172 102.917562,50.6318244 C102.917562,51.4912056 102.917562,52.3505867 102.917562,53.2102371 C102.900389,53.3300443 102.87624,53.4498515 102.866848,53.5704664 C102.742345,55.1322678 102.655407,56.6978384 102.489045,58.2550629 C102.238161,60.601938 101.764298,62.9108517 101.141245,65.1861118 C98.4856257,74.8832265 93.428759,83.1030779 85.9888916,89.8351661 C81.6200121,93.7882655 76.6887219,96.8615223 71.2398314,99.0877825 C66.8256049,100.891621 62.2511879,102.078386 57.5053108,102.571076 C55.1056738,102.820652 52.7028169,102.982459 50.2843971,102.871267 C46.9102011,102.715653 43.5722291,102.320154 40.2812141,101.542888 C34.6364458,100.209663 29.3600887,97.9987485 24.4706573,94.8694919 C18.3179484,90.932277 13.2342492,85.9025281 9.23163431,79.7794375 C5.90707856,74.6936888 3.56808321,69.1836341 2.2162582,63.2543888 C1.57227645,60.429631 1.16307972,57.5698733 1.01952546,54.6729619 C0.996181118,54.2023485 0.952175698,53.7328119 0.91756168,53.2624676 C0.91756168,52.3680866 0.91756168,51.4734364 0.91756168,50.5790554 C0.934734526,50.4587097 0.963177053,50.3389025 0.967470265,50.2180184 C1.03321007,48.3072953 1.21218333,46.4078799 1.48587557,44.5154645 C2.05848267,40.5610189 3.0872435,36.7290729 4.57484133,33.0244725 C7.55459852,25.6045024 12.0195386,19.2240282 17.9744915,13.9051266 C23.3332245,9.11876131 29.4408547,5.63519846 36.2684028,3.4223997 C39.0635519,2.51671105 41.9134395,1.83609842 44.8255786,1.46079224 C46.5203239,1.24244697 48.2317053,1.15333195 49.9355737,1.00498639 C50.2731275,0.975909585 50.6101446,0.940102038 50.94743,0.906986787 Z" id="Path" fill="#FFFFFF"></path>
                        <path d="M50.9875906,3.05415789 C51.5907664,3.05415789 52.1941995,3.05415789 52.7973753,3.05415789 C53.1132388,3.08484737 53.4280735,3.13152632 53.7447087,3.14338947 C56.2986247,3.24087368 58.8301627,3.5243 61.3390656,4.01997368 C65.4903045,4.84085263 69.4740945,6.16307895 73.2806614,8.0176 C79.7689816,11.1788737 85.297622,15.5587 89.8611811,21.1609474 C92.7669711,24.7284053 95.1171706,28.6329316 96.912294,32.8719474 C99.2766404,38.4545947 100.560929,44.2778579 100.757958,50.3407053 C100.761559,50.4562421 100.789596,50.5707474 100.806315,50.6855105 C100.806315,51.5087105 100.806315,52.3319105 100.806315,53.1553684 C100.789853,53.2701316 100.766703,53.3848947 100.757701,53.5004316 C100.638352,54.9964789 100.555013,56.4961368 100.395538,57.9878 C100.155039,60.2358684 99.7007927,62.4475737 99.1035328,64.6270421 C96.5578478,73.9158947 91.7103202,81.7896789 84.5784409,88.2383368 C80.3904199,92.0250053 75.6632703,94.9688737 70.4399475,97.1014053 C66.2084567,98.8293 61.8234068,99.9661 57.2739948,100.438047 C54.9736955,100.677116 52.6703097,100.832111 50.3520052,100.7256 C47.1174908,100.576537 43.9177008,100.197689 40.7629239,99.4531474 C35.351832,98.1760526 30.2939003,96.0582211 25.6068766,93.0607105 C19.7088714,89.2892579 14.835622,84.4712684 10.9987034,78.6059684 C7.81177428,73.7343368 5.5696063,68.4562632 4.27374278,62.7766474 C3.65641995,60.0708158 3.26416273,57.3314579 3.12655118,54.5565105 C3.10417323,54.1057105 3.0619895,53.6559421 3.0288084,53.2054 C3.0288084,52.3486737 3.0288084,51.4916895 3.0288084,50.6349632 C3.04527034,50.5196842 3.07253543,50.4049211 3.07665092,50.2891263 C3.13966929,48.4588474 3.3112336,46.6394 3.5735958,44.8266579 C4.12249869,41.0387 5.10867192,37.3680842 6.53468766,33.8194526 C9.39109186,26.7118737 13.6711969,20.6000263 19.3796325,15.5050579 C24.5165302,10.9202053 30.3713228,7.58330526 36.916231,5.46366842 C39.5956693,4.59611053 42.3275801,3.94415263 45.1191654,3.58464737 C46.7437533,3.37549474 48.3842887,3.29013158 50.017622,3.14803158 C50.3412021,3.12017895 50.6642677,3.08587895 50.9875906,3.05415789 Z M52.0998005,97.0178474 C53.9628294,97.0000526 55.8142835,96.8654316 57.6541627,96.6080526 C58.9955538,96.4205632 60.3356588,96.2054789 61.6623885,95.9352053 C64.2404829,95.4098737 66.7406404,94.6124632 69.1767507,93.6180211 C71.9364409,92.4912789 74.5608346,91.1050947 77.0447874,89.4540526 C80.9069134,86.8877421 84.2978163,83.8028053 87.213895,80.1902158 C89.1116483,77.8387316 90.7632441,75.3268368 92.1491339,72.6424105 C94.2086772,68.6532947 95.6591286,64.4550263 96.4598478,60.0280053 C96.8441312,57.9039842 97.0825722,55.7673263 97.1785144,53.617 C97.2693123,51.5873684 97.1934331,49.5567053 96.9907454,47.5327474 C96.8117218,45.7473421 96.5277533,43.9787 96.1432126,42.2263053 C95.2727874,38.2622053 93.8809816,34.4907526 91.9883727,30.9026632 C90.574189,28.2215895 88.905874,25.7109842 86.983685,23.3708474 C83.5135591,19.1449842 79.4106772,15.6636632 74.6819843,12.9292053 C70.9788189,10.7873895 67.0485302,9.20185263 62.8934331,8.18961579 C61.0165144,7.73211053 59.1233911,7.35377895 57.196315,7.17763684 C56.0228871,7.07035263 54.8492021,6.93160526 53.6729449,6.89188947 C52.4442152,6.85036842 51.210084,6.87641579 49.9816115,6.93676316 C48.7721732,6.99633684 47.5624777,7.10155789 46.3602415,7.24855789 C44.2258478,7.50928947 42.1225774,7.94538947 40.0509449,8.52410526 C35.4446877,9.81074211 31.143748,11.7691947 27.1550709,14.4198368 C24.5126719,16.1758421 22.0814488,18.1853579 19.8632021,20.4532842 C17.6446982,22.7212105 15.6898425,25.1993211 13.9911759,27.8827158 C12.5517848,30.1565737 11.3281995,32.5408105 10.3170761,35.0338789 C9.17039895,37.8614368 8.32440945,40.7792579 7.76470341,43.7801211 C7.33592126,46.0784789 7.10725459,48.3992737 7.0396063,50.7334789 C6.98867717,52.4956737 7.05864042,54.2555474 7.21862992,56.0141316 C7.36704462,57.6468632 7.59365354,59.2656684 7.92212073,60.8692579 C8.79434646,65.1263263 10.2373386,69.1801737 12.2791339,73.0166158 C14.7476535,77.6545947 17.921979,81.7422263 21.8098268,85.2704842 C24.0329606,87.2882526 26.4358898,89.0612789 29.0132126,90.6003947 C31.835664,92.2857368 34.8060157,93.6420053 37.9216955,94.6774526 C41.2776168,95.7925895 44.7199633,96.5041211 48.2425617,96.8017316 C49.5247927,96.9100474 50.8137113,96.9474421 52.0998005,97.0178474 Z" id="Shape" fill="#3F4C88" fill-rule="nonzero"></path>
                        <path d="M56.9514436,49.9886158 C56.5128871,50.5683632 56.0910499,51.1099421 55.6859318,51.6636421 C54.4034436,53.4157789 53.3017795,55.2692684 52.5982887,57.3378421 C52.2029449,58.4999158 52.1008294,59.6978368 52.2173491,60.9153579 C52.236126,61.1123895 52.1957428,61.2470105 52.0403832,61.3731211 C51.4228031,61.8752421 50.8134541,62.3876789 50.2002467,62.8949579 C50.1832703,62.9091421 50.1567769,62.9114632 50.0899003,62.9354474 C50.0438583,62.5161105 49.9720945,62.1135368 49.9610341,61.7091579 C49.9335118,60.7090421 50.1410866,59.7409053 50.4870446,58.8119684 C51.1897638,56.9244368 51.9699055,55.0699158 53.0548504,53.3629105 C53.4597113,52.7259105 53.8838635,52.1010316 54.2907822,51.4658368 C54.3481417,51.3763474 54.3581732,51.2564263 54.389811,51.1506895 C54.2720052,51.1334105 54.1482835,51.0844105 54.0366509,51.1042684 C53.481832,51.2025263 53.0409606,51.5076158 52.6389291,51.8918789 C51.6123727,52.8731684 50.5999633,53.8743158 49.8993018,55.1227842 C49.38821,56.0339263 48.9728031,56.9989684 48.5103255,57.9377053 C47.984315,59.0051316 47.4845407,60.0875158 46.9106877,61.1286368 C46.6408661,61.6178632 46.2735591,62.0787211 45.8648399,62.4596316 C45.0852126,63.1861211 44.1551129,63.1244842 43.2347874,62.7598211 C42.6305827,62.5202368 42.6372703,62.4905789 42.303916,63.0422158 C41.8861942,63.7338895 41.4090551,64.3755316 40.8470341,64.9596632 C39.8245932,66.0221895 38.5670551,66.6220526 37.1369239,66.8520947 C36.3647559,66.9761421 35.576126,67.0493842 34.7946982,67.0509316 C33.6631969,67.0535105 32.5401837,66.8822684 31.4760735,66.4866579 C30.538,66.1377263 29.7388241,65.5523053 29.0749449,64.7946105 C28.8871759,64.5800421 28.7295013,64.3353 28.5221837,64.1434263 C28.2217533,63.8646421 28.1566772,63.5368579 28.1710814,63.1469211 C28.1944882,62.5179158 28.1759685,61.8873632 28.1798268,61.2573263 C28.1803412,61.1882105 28.2132651,61.1193526 28.2312703,61.0502368 C28.3035486,61.0798947 28.3874016,61.0948526 28.4460472,61.1417895 C29.618189,62.0769158 30.7550919,63.0605263 31.9683885,63.9381421 C32.7685932,64.5166 33.6369606,65.0602421 34.6509134,65.1837737 C35.2774961,65.2601105 35.9254278,65.2567579 36.5545827,65.1958947 C37.7920577,65.0762316 38.925874,64.6290421 39.920021,63.8770211 C40.5707822,63.3844421 41.1382047,62.8008263 41.5232598,62.0647947 C41.6600997,61.8030316 41.6284619,61.6694421 41.3928504,61.4778263 C41.0548661,61.2029105 40.7132808,60.9323789 40.3732388,60.6600421 C40.3405722,60.6337368 40.3004462,60.6131053 40.2762677,60.5808684 C40.1674646,60.4349 40.0241942,60.2886737 40.1296535,60.0880316 C40.2009029,59.9523789 40.5275696,59.9423211 40.7073648,60.0449632 C41.0335171,60.2316789 41.361727,60.4147842 41.6914803,60.5950526 C41.7472966,60.6254842 41.8149449,60.6339947 41.891853,60.6572053 C42.1004567,60.3033737 42.0978845,59.9131789 42.0860525,59.5485158 C42.026378,57.7068895 41.3967087,56.0829263 40.1955013,54.6761105 C39.6540577,54.0419474 39.0933228,53.4297053 38.4132388,52.9489895 C37.1186614,52.0342368 35.7111654,51.3910474 34.1099843,51.2350211 C31.9172021,51.0207105 29.8754068,51.4717684 27.9761102,52.5923211 C26.7548399,53.3126211 25.7985039,54.3026789 24.9797795,55.4492789 C24.199895,56.5409474 23.7410184,57.7538263 23.5959475,59.0770842 C23.4768556,60.1646263 23.5802572,61.2470105 23.9426772,62.2837474 C24.2240735,63.0894105 24.5185879,63.8945579 24.9910971,64.6179526 C25.7812703,65.8269632 26.6972231,66.9214684 27.8567612,67.7923789 C28.5126667,68.2847 29.1773176,68.7661895 29.8478845,69.2383947 C30.7872441,69.8996368 31.8503255,70.3238737 32.918294,70.7004 C34.0096693,71.0851789 35.1313963,71.4176053 36.265727,71.6357842 C37.2938268,71.8330737 38.3558793,71.8596368 39.4048136,71.9362316 C40.5445459,72.0192737 41.672189,71.8588632 42.8034331,71.7404895 C44.7570026,71.5362368 46.6503832,71.0560368 48.5219003,70.4940842 C50.3687244,69.9398684 52.1108609,69.1241474 53.7892073,68.1748368 C55.8104252,67.0310737 57.6649659,65.6621684 59.3353386,64.0428474 C60.892021,62.5341632 62.2169501,60.8369579 63.3366194,58.9878526 C64.0385669,57.8281 64.6373701,56.6061947 65.278357,55.4098211 C66.045895,53.9764421 66.7969711,52.5342947 67.5778845,51.1083947 C68.5375643,49.3547105 69.7099633,47.7537 71.1385512,46.3535895 C71.7185774,45.7849316 72.3479895,45.2673368 73.0862047,44.9042211 C73.7073858,44.5988737 74.3717795,44.5021632 75.0438898,44.6006789 C75.7813333,44.7087368 76.3608451,45.0914526 76.6491864,45.8156211 C76.9869134,46.6638368 77.1582205,47.5466105 76.9084619,48.4412474 C76.6949711,49.2069368 76.2386667,49.8421316 75.6174856,50.3460579 C75.5462362,50.4040842 75.4490079,50.4298737 75.3638688,50.4703632 C75.3445774,50.4515368 75.3255433,50.4327105 75.306252,50.4138842 C75.35821,50.3303263 75.4057953,50.2429 75.4639265,50.1637263 C76.0917953,49.3126737 76.3896535,48.3834789 76.0755906,47.3353947 C75.851811,46.5872421 74.9134803,46.0513368 74.1382257,46.1134895 C73.1507664,46.1929211 72.3914593,46.6811158 71.7018583,47.3323 C70.6560105,48.3200368 69.8846142,49.5241474 69.0746352,50.6962789 C67.8469344,52.4742053 66.8661627,54.3911368 65.8938793,56.3170947 C64.8148504,58.4555579 63.7952388,60.6324474 62.384399,62.5854842 C61.3071706,64.0768895 60.1707822,65.5192947 58.8327349,66.7883947 C56.2276325,69.2595421 53.3017795,71.2347579 49.9185932,72.4749737 C48.2785722,73.0761263 46.604084,73.5828895 44.8663202,73.8062263 C43.1496483,74.0267263 41.4265459,74.2028684 39.7031864,74.3617316 C38.871601,74.4383263 38.0315276,74.4672105 37.1963412,74.4525105 C35.7988766,74.4274947 34.4026982,74.3534789 33.0232388,74.0888789 C30.892189,73.6806316 28.9283307,72.8636211 27.1393806,71.6412 C25.7576063,70.6970474 24.5512546,69.5458053 23.6214121,68.1542053 C22.669706,66.7301105 21.9893648,65.1713947 21.7969659,63.4393737 C21.5549239,61.2581 21.8363202,59.1454263 22.7831391,57.1637632 C23.5365302,55.5872526 24.5548556,54.1899789 25.8617795,53.0049526 C26.8142572,52.1412632 27.85779,51.4276684 28.9952073,50.8458579 C30.8286562,49.9081526 32.7655066,49.4981 34.8242782,49.7431 C37.2930551,50.0365842 39.4305354,51.0243211 41.1911916,52.7970895 C42.3507297,53.9648368 43.0745407,55.3737158 43.4253858,56.9752421 C43.7132126,58.2894737 43.5972073,59.5902947 43.2226982,60.8738368 C43.093832,61.3161263 43.1550499,61.3916895 43.6296168,61.3901421 C44.5381102,61.3873053 45.2251391,60.9824105 45.7478058,60.2533421 C46.9713911,58.5460789 47.982,56.7067737 49.0319633,54.893 C49.7241365,53.6971421 50.4978478,52.5652421 51.4264042,51.5455263 C52.1445564,50.7568842 52.9596798,50.0742368 53.9795486,49.7222105 C54.9783255,49.3771474 55.9675853,49.4710211 56.9514436,49.9886158 Z" id="Path" fill="#3F4C88" fill-rule="nonzero"></path>
                        <path d="M26.1668399,49.3503263 C25.7851286,49.8988684 25.410105,50.4525684 25.0150184,50.9913105 C24.9442835,51.0880211 24.7966404,51.1401158 24.6742047,51.1849895 C22.9274383,51.8230211 21.1173963,52.1172789 19.264399,52.1515789 C18.2311549,52.1704053 17.2272336,52.0210842 16.3066509,51.5055526 C15.2399685,50.9082684 14.6645722,49.9968684 14.5493386,48.7772842 C14.425874,47.4707895 14.8410236,46.3141316 15.5872126,45.2895158 C17.2298058,43.0334526 19.2669711,41.1972421 21.6212861,39.7011947 C24.4524829,37.9026368 27.5174908,36.6709316 30.7365722,35.7804211 C33.5327874,35.0067368 36.3701575,34.4628368 39.2489396,34.1301526 C40.6770131,33.9651 42.1063727,33.8098474 43.53779,33.6814158 C44.5041575,33.5950211 45.4751549,33.5581421 46.4446089,33.5091421 C47.8322992,33.4387368 49.2205039,33.3255211 50.6084514,33.3247414 C52.3235801,33.3242316 54.0433386,33.3569842 55.7525512,33.4874789 C59.2707769,33.7556895 62.6709396,34.5956526 66.0240315,35.6880947 C69.1533438,36.7078105 72.1607349,38.0375158 75.2406614,39.1789579 C77.8761155,40.1556053 80.5267454,41.1000158 83.3008399,41.6021368 C84.4488031,41.81 85.6212021,41.8956211 86.786399,41.9845947 C87.5351601,42.0418474 88.2913806,42.0116737 89.0437428,42.0062579 C89.629685,42.0018737 90.1119685,41.6980737 90.5921942,41.4100053 C91.3201207,40.9733895 91.7391286,40.2853263 92.0956325,39.4582579 C92.252021,39.6349158 92.4235853,39.7641211 92.5092388,39.9363947 C92.9079265,40.7397368 92.8780892,41.5773789 92.6242152,42.4121842 C92.4400472,43.0177211 92.168168,43.5850895 91.7586772,44.0761211 C91.4754803,44.4152526 91.1066299,44.6143474 90.672189,44.6321421 C89.5108504,44.6795947 88.3466824,44.7585105 87.1868871,44.7231789 C85.184189,44.6620579 83.2164724,44.3211211 81.2711339,43.8311211 C78.7151601,43.1874158 76.1885092,42.4500947 73.7343937,41.4871158 C71.7725932,40.7173 69.8390866,39.8755316 67.8834593,39.0905 C65.1410026,37.9895474 62.3249816,37.1176053 59.4546877,36.4163895 C57.9473911,36.0481158 56.4184882,35.8098211 54.8810971,35.6341947 C53.0057218,35.4198842 51.1218583,35.4327789 49.2377375,35.5055053 C48.5769449,35.5312947 47.9148661,35.5338737 47.2545879,35.5648211 C44.9957008,35.6697842 42.7445302,35.8608842 40.5036483,36.1729368 C37.8594488,36.5409526 35.2435433,37.0696368 32.6775381,37.7925158 C29.6102152,38.6564632 26.5822467,39.6547737 23.7739423,41.2098789 C22.3625879,41.9915579 21.0098793,42.8629842 19.8601155,44.0088105 C18.7679685,45.0971263 17.9209501,46.3414684 17.6336378,47.8947684 C17.5438688,48.3796105 17.4903675,48.8765737 17.6624462,49.3611579 C17.8219213,49.8096368 18.1599055,50.0933211 18.5735118,50.2808105 C19.2839475,50.6031789 20.0432546,50.5577895 20.795874,50.5314842 C22.5755643,50.4693316 24.2539108,49.9687579 25.9011339,49.3356263 C25.9677533,49.3098368 26.0405459,49.3000368 26.110252,49.2825 C26.1298005,49.3046789 26.1483202,49.3276316 26.1668399,49.3503263 Z" id="Path" fill="#3F4C88" fill-rule="nonzero"></path>
                        <path d="M60.4027927,53.9488474 C60.07021,53.6104895 59.6728084,53.5297684 59.2568871,53.5354421 C59.087895,53.5375053 58.8990971,53.5651 58.7555696,53.6453053 C58.3898058,53.8493 58.3393911,54.4058368 58.6892073,54.7532211 C58.8926667,54.9551526 59.1789501,55.1073105 59.4554593,55.1937053 C60.0102782,55.3677842 60.5856745,55.3092421 61.1448661,55.1831316 C61.5435538,55.0931263 61.8465564,54.8409053 62.0718793,54.4999684 C62.584,53.7265421 62.6835433,52.8850316 62.3949449,52.0195368 C62.12821,51.2185158 61.7135748,51.0297368 60.8848189,50.9995632 C60.2294278,50.9758368 59.6365407,51.2182579 59.0657743,51.4973 C57.2161207,52.4014789 55.9572966,53.8678684 55.1321417,55.7316737 C54.7784672,56.5303737 54.4386824,57.3383579 54.3288504,58.2133947 C54.259916,58.7611632 54.2022992,59.3249211 54.5001575,59.8342632 C54.7195643,60.2084684 55.049832,60.4315474 55.4914751,60.4802895 C55.9971654,60.5362526 56.4676168,60.4258737 56.9352388,60.2396737 C58.2035801,59.7349737 59.4472283,59.1820474 60.6034226,58.4488526 C60.779874,58.3369263 60.9424357,58.2035947 61.1127139,58.0821263 C61.2220315,58.0042421 61.3280052,57.9493105 61.4378373,58.0911526 C61.5430394,58.2268053 61.589853,58.3562684 61.4370656,58.4849579 C61.1299475,58.7444 60.8308031,59.0151895 60.5095381,59.2555474 C59.0145879,60.3740368 57.3653071,61.1902737 55.5851024,61.7429421 C55.0264252,61.9162474 54.4615748,61.9036105 53.9005827,61.7661526 C53.2534226,61.6080632 52.7454173,60.8789947 52.7577638,60.1081474 C52.7731969,59.1201526 52.971769,58.1589789 53.2806877,57.2254 C53.7696588,55.7476632 54.3738635,54.3176368 55.3057638,53.0598842 C56.6409816,51.2577158 58.4193858,50.1755895 60.6669554,49.9824263 C61.572105,49.9042842 62.4242677,50.1830684 63.1539948,50.7561105 C63.8775486,51.3245105 64.0493701,52.0889105 63.8667454,52.9471842 C63.7005827,53.7268 63.2954646,54.3973263 62.788231,54.9987368 C62.1889134,55.7089789 61.3503832,55.9862158 60.4833018,56.1716421 C59.8425722,56.3088421 59.1912966,56.3317947 58.542336,56.1832474 C58.015811,56.0625526 57.5710814,55.8005316 57.251874,55.3719105 C56.9462992,54.9618579 56.9833386,54.4896526 57.2024882,54.0589684 C57.7174383,53.0487947 58.4721155,52.3540263 59.6774383,52.3326211 C60.0964462,52.3251421 60.4853596,52.4509947 60.8382625,52.6789737 C61.001853,52.7847105 61.0260315,52.9438316 60.9393491,53.0965053 C60.7783307,53.3783842 60.5949344,53.6465947 60.4027927,53.9488474 Z" id="Path" fill="#3F4C88" fill-rule="nonzero"></path>
                        <path d="M67.5585932,62.3915474 C66.8682205,62.4129526 66.2959108,62.1514474 65.8102835,61.6869789 C65.5250289,61.4138684 65.4584094,61.0574579 65.4576254,60.675 C65.4545512,59.3976474 66.0273753,58.3196474 66.6315801,57.2548 C67.114378,56.4042632 67.6789711,55.6138158 68.4269606,54.9734632 C69.0604882,54.4313684 69.7459738,53.9728316 70.5304882,53.6692895 C71.2684462,53.3840579 71.8446142,53.6435 72.1970026,54.3284684 C72.4405879,54.8014474 72.461937,55.7244526 71.8047454,56.1631316 C71.4029711,56.4313421 70.8648714,56.3784737 70.5577533,56.0081368 C70.3805302,55.7943421 70.2426614,55.5604316 70.2388031,55.2617895 C70.2352021,54.9770737 70.0929606,54.8783 69.832399,54.9920316 C69.6520892,55.0706895 69.4815538,55.1908684 69.3344252,55.3234263 C68.4032966,56.1654526 67.7242415,57.1872316 67.2859423,58.3591053 C67.0835118,58.8996526 66.9474436,59.4672789 67.0426142,60.0594053 C67.1277533,60.5911842 67.426126,60.8764158 67.9688556,60.8766737 C68.2314751,60.8769316 68.5051549,60.8281895 68.755685,60.7464368 C70.5724147,60.1507 72.2805984,59.3378158 73.7920105,58.1471158 C73.9558583,58.0181684 74.0790656,58.0772263 74.1894121,58.1783211 C74.3326824,58.3093316 74.2025302,58.4217737 74.119706,58.5202895 C73.4280472,59.3419421 72.5936325,59.9946737 71.7085459,60.5935053 C70.6395486,61.3169 69.4998163,61.8845263 68.2682572,62.2664684 C68.1483937,62.3038632 68.0262152,62.3353263 67.9027507,62.3569895 C67.7877743,62.3776211 67.6699685,62.3812316 67.5585932,62.3915474 Z" id="Path" fill="#3F4C88" fill-rule="nonzero"></path>
                        <path d="M76.6669344,56.7464895 C77.2994331,56.7464895 77.8079528,57.2764632 77.8089861,57.9379632 C77.8107822,58.5741895 77.2708819,59.1482632 76.6682205,59.1526705 C76.0385512,59.1567737 75.5295171,58.6082316 75.5318242,57.9271316 C75.5346614,57.2419053 76.0110289,56.7464895 76.6669344,56.7464895 Z" id="Path" fill="#3F4C88" fill-rule="nonzero"></path>
                    </g>
                    <path d="M115.48,30.96 C115.48,32.7706757 115.438,34.3433267 115.354,35.678 C115.27,37.0126733 115.148667,38.146662 114.99,39.08 C114.831333,40.013338 114.640001,40.7739971 114.416,41.362 C114.191999,41.9500029 113.949335,42.4073317 113.688,42.734 C113.426665,43.0606683 113.151335,43.2799994 112.862,43.392 C112.572665,43.5040006 112.278668,43.56 111.98,43.56 C111.867999,43.56 111.765334,43.5553334 111.672,43.546 C111.578666,43.5366666 111.485334,43.5226668 111.392,43.504 C111.298666,43.4853332 111.214667,43.4573335 111.14,43.42 L110.72,41.32 C110.794667,41.3573335 110.878666,41.3853332 110.972,41.404 C111.065334,41.4226668 111.158666,41.4366666 111.252,41.446 C111.345334,41.4553334 111.447999,41.46 111.56,41.46 C112.045336,41.46 112.493331,41.3386679 112.904,41.096 C113.314669,40.8533321 113.669332,40.363337 113.968,39.626 C114.266668,38.888663 114.499999,37.8293402 114.668,36.448 C114.836001,35.0666598 114.92,33.2373447 114.92,30.96 L114.92,24.24 L113.1,23.68 L113.1,23.4 L124.72,23.4 L124.72,23.68 L123.04,24.1 L123.04,42.3 L124.72,42.72 L124.72,43 L118.98,43 L118.98,42.72 L120.66,42.3 L120.66,23.96 L115.48,23.96 L115.48,30.96 Z M136.9,42.44 C136.9,41.6559961 137.058665,40.9280034 137.376,40.256 C137.693335,39.5839966 138.094664,39.0053358 138.58,38.52 L138.86,38.52 C138.822666,38.7626679 138.794667,39.0146654 138.776,39.276 C138.757333,39.5000011 138.743333,39.7426654 138.734,40.004 C138.724667,40.2653346 138.72,40.5173321 138.72,40.76 C138.72,41.1146684 138.724667,41.427332 138.734,41.698 C138.743333,41.968668 138.757333,42.2066656 138.776,42.412 C138.794667,42.6360011 138.822666,42.8319992 138.86,43 L127.24,43 L127.24,42.72 L128.92,42.3 L128.92,24.1 L127.24,23.68 L127.24,23.4 L138.58,23.4 C138.542666,23.5680008 138.514667,23.7639989 138.496,23.988 C138.477333,24.1933344 138.463333,24.431332 138.454,24.702 C138.444667,24.972668 138.44,25.2853316 138.44,25.64 C138.44,25.9013346 138.444667,26.1579987 138.454,26.41 C138.463333,26.6620013 138.477333,26.9 138.496,27.124 C138.514667,27.3853346 138.542666,27.6373321 138.58,27.88 L138.3,27.88 C137.814664,27.3946642 137.413335,26.8160034 137.096,26.144 C136.778665,25.4719966 136.62,24.7440039 136.62,23.96 L131.3,23.96 L131.3,32.36 L133.96,32.36 L135.22,29.84 L135.5,29.84 L135.5,35.44 L135.22,35.44 L133.96,32.92 L131.3,32.92 L131.3,42.44 L136.9,42.44 Z M145.44,32.92 L145.44,42.3 L147.12,42.72 L147.12,43 L141.38,43 L141.38,42.72 L143.06,42.3 L143.06,24.1 L141.38,23.68 L141.38,23.4 L147.12,23.4 L147.12,23.68 L145.44,24.1 L145.44,32.36 L151.18,32.36 L151.18,24.1 L149.5,23.68 L149.5,23.4 L155.24,23.4 L155.24,23.68 L153.56,24.1 L153.56,42.3 L155.24,42.72 L155.24,43 L149.5,43 L149.5,42.72 L151.18,42.3 L151.18,32.92 L145.44,32.92 Z M164.48,23.54 C163.957331,23.54 163.444003,23.6893318 162.94,23.988 C162.435997,24.2866682 161.988002,24.804663 161.596,25.542 C161.203998,26.279337 160.886668,27.2686605 160.644,28.51 C160.401332,29.7513395 160.28,31.3146572 160.28,33.2 C160.28,35.0853428 160.401332,36.6486605 160.644,37.89 C160.886668,39.1313395 161.213331,40.120663 161.624,40.858 C162.034669,41.595337 162.510664,42.1133318 163.052,42.412 C163.593336,42.7106682 164.162664,42.86 164.76,42.86 C165.245336,42.86 165.739997,42.7293346 166.244,42.468 C166.748003,42.2066654 167.209998,41.842669 167.63,41.376 C168.050002,40.909331 168.404665,40.3586698 168.694,39.724 C168.983335,39.0893302 169.165333,38.4080036 169.24,37.68 L169.66,37.68 C169.585333,38.5200042 169.398668,39.2899965 169.1,39.99 C168.801332,40.6900035 168.423336,41.2966641 167.966,41.81 C167.508664,42.3233359 166.981336,42.7199986 166.384,43 C165.786664,43.2800014 165.152003,43.42 164.48,43.42 C163.602662,43.42 162.753337,43.2100021 161.932,42.79 C161.110663,42.3699979 160.378003,41.7353376 159.734,40.886 C159.089997,40.0366624 158.576669,38.9726731 158.194,37.694 C157.811331,36.4153269 157.62,34.9173419 157.62,33.2 C157.62,31.4826581 157.811331,29.9846731 158.194,28.706 C158.576669,27.4273269 159.080664,26.3633376 159.706,25.514 C160.331336,24.6646624 161.035996,24.0300021 161.82,23.61 C162.604004,23.1899979 163.397329,22.98 164.2,22.98 C164.648002,22.98 165.053998,23.0546659 165.418,23.204 C165.782002,23.3533341 166.094665,23.5213324 166.356,23.708 C166.654668,23.9133344 166.915999,24.1466654 167.14,24.408 C167.289334,24.1279986 167.489999,23.8620013 167.742,23.61 C167.994001,23.3579987 168.259999,23.194667 168.54,23.12 L168.96,23.12 C168.922666,23.4000014 168.894667,23.6799986 168.876,23.96 C168.857333,24.2213346 168.843333,24.4966652 168.834,24.786 C168.824667,25.0753348 168.82,25.3599986 168.82,25.64 C168.82,25.9573349 168.824667,26.2699985 168.834,26.578 C168.843333,26.8860015 168.857333,27.1706654 168.876,27.432 C168.894667,27.7306682 168.922666,28.0199986 168.96,28.3 L168.54,28.3 C168.110665,26.7506589 167.53667,25.5700041 166.818,24.758 C166.09933,23.9459959 165.320004,23.54 164.48,23.54 Z M175.54,32.92 L175.54,42.3 L177.22,42.72 L177.22,43 L171.48,43 L171.48,42.72 L173.16,42.3 L173.16,24.1 L171.48,23.68 L171.48,23.4 L177.22,23.4 L177.22,23.68 L175.54,24.1 L175.54,32.36 L181.28,32.36 L181.28,24.1 L179.6,23.68 L179.6,23.4 L185.34,23.4 L185.34,23.68 L183.66,24.1 L183.66,42.3 L185.34,42.72 L185.34,43 L179.6,43 L179.6,42.72 L181.28,42.3 L181.28,32.92 L175.54,32.92 Z M190.38,36.728 L195.812,36.728 L193.012,27.46 L190.38,36.728 Z M195.98,37.26 L190.24,37.26 L188.84,42.02 L190.66,42.72 L190.66,43 L186.46,43 L186.46,42.72 L188.28,42.02 L193.74,22.98 L194.16,22.98 L200.04,42.3 L201.72,42.72 L201.72,43 L195.84,43 L195.84,42.72 L197.52,42.3 L195.98,37.26 Z M206.48,30.4 L207.46,30.4 C208.617339,30.4 209.648662,30.5586651 210.554,30.876 C211.459338,31.1933349 212.219997,31.6319972 212.836,32.192 C213.452003,32.7520028 213.923332,33.4146628 214.25,34.18 C214.576668,34.9453372 214.74,35.7853288 214.74,36.7 C214.74,37.6146712 214.576668,38.4546628 214.25,39.22 C213.923332,39.9853372 213.452003,40.6479972 212.836,41.208 C212.219997,41.7680028 211.459338,42.2066651 210.554,42.524 C209.648662,42.8413349 208.617339,43 207.46,43 L202.42,43 L202.42,42.72 L204.1,42.3 L204.1,24.1 L202.42,23.68 L202.42,23.4 L212.64,23.4 C212.602666,23.5680008 212.574667,23.7639989 212.556,23.988 C212.537333,24.1933344 212.523333,24.431332 212.514,24.702 C212.504667,24.972668 212.5,25.2853316 212.5,25.64 C212.5,25.9013346 212.504667,26.1579987 212.514,26.41 C212.523333,26.6620013 212.537333,26.9 212.556,27.124 C212.574667,27.3853346 212.602666,27.6373321 212.64,27.88 L212.36,27.88 C211.874664,27.3946642 211.473335,26.8160034 211.156,26.144 C210.838665,25.4719966 210.68,24.7440039 210.68,23.96 L206.48,23.96 L206.48,30.4 Z M206.48,42.44 L207.46,42.44 C208.934674,42.44 210.073329,41.9920045 210.876,41.096 C211.678671,40.1999955 212.08,38.7346768 212.08,36.7 C212.08,34.6653232 211.678671,33.2000045 210.876,32.304 C210.073329,31.4079955 208.934674,30.96 207.46,30.96 L206.48,30.96 L206.48,42.44 Z M222.58,42.72 L222.58,43 L216.84,43 L216.84,42.72 L218.52,42.3 L218.52,24.1 L216.84,23.68 L216.84,23.4 L230.7,23.4 L230.7,23.68 L229.02,24.1 L229.02,42.3 L230.7,42.72 L230.7,43 L224.96,43 L224.96,42.72 L226.64,42.3 L226.64,23.96 L220.9,23.96 L220.9,42.3 L222.58,42.72 Z M242.88,42.44 C242.88,41.6559961 243.038665,40.9280034 243.356,40.256 C243.673335,39.5839966 244.074664,39.0053358 244.56,38.52 L244.84,38.52 C244.802666,38.7626679 244.774667,39.0146654 244.756,39.276 C244.737333,39.5000011 244.723333,39.7426654 244.714,40.004 C244.704667,40.2653346 244.7,40.5173321 244.7,40.76 C244.7,41.1146684 244.704667,41.427332 244.714,41.698 C244.723333,41.968668 244.737333,42.2066656 244.756,42.412 C244.774667,42.6360011 244.802666,42.8319992 244.84,43 L233.22,43 L233.22,42.72 L234.9,42.3 L234.9,24.1 L233.22,23.68 L233.22,23.4 L244.56,23.4 C244.522666,23.5680008 244.494667,23.7639989 244.476,23.988 C244.457333,24.1933344 244.443333,24.431332 244.434,24.702 C244.424667,24.972668 244.42,25.2853316 244.42,25.64 C244.42,25.9013346 244.424667,26.1579987 244.434,26.41 C244.443333,26.6620013 244.457333,26.9 244.476,27.124 C244.494667,27.3853346 244.522666,27.6373321 244.56,27.88 L244.28,27.88 C243.794664,27.3946642 243.393335,26.8160034 243.076,26.144 C242.758665,25.4719966 242.6,24.7440039 242.6,23.96 L237.28,23.96 L237.28,32.36 L239.94,32.36 L241.2,29.84 L241.48,29.84 L241.48,35.44 L241.2,35.44 L239.94,32.92 L237.28,32.92 L237.28,42.44 L242.88,42.44 Z M256.32,33.9 C256.039999,34.0866676 255.732002,34.2546659 255.396,34.404 C255.097332,34.5346673 254.752002,34.6466662 254.36,34.74 C253.967998,34.8333338 253.548002,34.88 253.1,34.88 C251.475992,34.88 250.253337,34.4926705 249.432,33.718 C248.610663,32.9433295 248.2,31.8840067 248.2,30.54 L248.2,24.1 L246.52,23.68 L246.52,23.4 L252.26,23.4 L252.26,23.68 L250.58,24.1 L250.58,30.54 C250.58,31.8840067 250.836664,32.8499971 251.35,33.438 C251.863336,34.0260029 252.539996,34.32 253.38,34.32 C253.753335,34.32 254.121998,34.2733338 254.486,34.18 C254.850002,34.0866662 255.162665,33.9746673 255.424,33.844 C255.741335,33.6946659 256.039999,33.5266676 256.32,33.34 L256.32,24.1 L254.64,23.68 L254.64,23.4 L260.38,23.4 L260.38,23.68 L258.7,24.1 L258.7,42.3 L260.38,42.72 L260.38,43 L254.64,43 L254.64,42.72 L256.32,42.3 L256.32,33.9 Z M265.42,36.728 L270.852,36.728 L268.052,27.46 L265.42,36.728 Z M271.02,37.26 L265.28,37.26 L263.88,42.02 L265.7,42.72 L265.7,43 L261.5,43 L261.5,42.72 L263.32,42.02 L268.78,22.98 L269.2,22.98 L275.08,42.3 L276.76,42.72 L276.76,43 L270.88,43 L270.88,42.72 L272.56,42.3 L271.02,37.26 Z M284.32,42.3 L286,42.72 L286,43 L280.26,43 L280.26,42.72 L281.94,42.3 L281.94,23.96 L279,23.96 C279,24.7440039 278.841335,25.4719966 278.524,26.144 C278.206665,26.8160034 277.805336,27.3946642 277.32,27.88 L277.04,27.88 C277.058667,27.6373321 277.077333,27.3853346 277.096,27.124 C277.114667,26.9 277.133333,26.6620013 277.152,26.41 C277.170667,26.1579987 277.18,25.9013346 277.18,25.64 C277.18,25.2853316 277.170667,24.972668 277.152,24.702 C277.133333,24.431332 277.114667,24.1933344 277.096,23.988 C277.077333,23.7639989 277.058667,23.5680008 277.04,23.4 L289.22,23.4 C289.182666,23.5680008 289.154667,23.7639989 289.136,23.988 C289.117333,24.1933344 289.103333,24.431332 289.094,24.702 C289.084667,24.972668 289.08,25.2853316 289.08,25.64 C289.08,25.9013346 289.084667,26.1579987 289.094,26.41 C289.103333,26.6620013 289.117333,26.9 289.136,27.124 C289.154667,27.3853346 289.182666,27.6373321 289.22,27.88 L288.94,27.88 C288.454664,27.3946642 288.053335,26.8160034 287.736,26.144 C287.418665,25.4719966 287.26,24.7440039 287.26,23.96 L284.32,23.96 L284.32,42.3 Z M296.36,30.96 C297.517339,30.96 298.548662,31.1139985 299.454,31.422 C300.359338,31.7300015 301.119997,32.1593306 301.736,32.71 C302.352003,33.2606694 302.823332,33.9 303.15,34.628 C303.476668,35.3560036 303.64,36.1399958 303.64,36.98 C303.64,37.8200042 303.476668,38.6039964 303.15,39.332 C302.823332,40.0600036 302.352003,40.6993306 301.736,41.25 C301.119997,41.8006694 300.359338,42.2299985 299.454,42.538 C298.548662,42.8460015 297.517339,43 296.36,43 L291.32,43 L291.32,42.72 L293,42.3 L293,24.1 L291.32,23.68 L291.32,23.4 L297.06,23.4 L297.06,23.68 L295.38,24.1 L295.38,30.96 L296.36,30.96 Z M295.38,42.44 L296.36,42.44 C297.834674,42.44 298.973329,42.0060043 299.776,41.138 C300.578671,40.2699957 300.98,38.8840095 300.98,36.98 C300.98,35.0759905 300.578671,33.6900043 299.776,32.822 C298.973329,31.9539957 297.834674,31.52 296.36,31.52 L295.38,31.52 L295.38,42.44 Z" id="ЛЕНСНАБПЕЧАТЬ" stroke="#3E4B8B" fill="#3F4C88" fill-rule="nonzero"></path>
                </g>
            </g>
        </g>
    </g>
</svg>