<?xml version="1.0" standalone="no"?>
<!DOCTYPE svg PUBLIC "-//W3C//DTD SVG 20010904//EN"
 "http://www.w3.org/TR/2001/REC-SVG-20010904/DTD/svg10.dtd">
<svg version="1.0" xmlns="http://www.w3.org/2000/svg"
 width="700.000000pt" height="700.000000pt" viewBox="0 0 700.000000 700.000000"
 preserveAspectRatio="xMidYMid meet">
<metadata>
Created by potrace 1.11, written by Peter Selinger 2001-2013
</metadata>
<g transform="translate(0.000000,700.000000) scale(0.100000,-0.100000)"
fill="#000000" stroke="none">
<path d="M3315 6829 c-357 -33 -526 -63 -750 -130 -431 -130 -806 -325 -1147
-597 -692 -553 -1123 -1330 -1234 -2227 -22 -172 -24 -557 -5 -725 89 -786
420 -1474 975 -2025 406 -403 883 -683 1431 -840 797 -228 1639 -154 2390 211
710 344 1289 951 1600 1679 303 709 354 1496 145 2232 -371 1309 -1511 2267
-2861 2407 -194 20 -423 27 -544 15z m550 -274 c700 -78 1337 -386 1835 -885
274 -275 483 -578 636 -925 193 -437 273 -844 261 -1333 -9 -371 -72 -692
-201 -1024 -284 -732 -819 -1315 -1521 -1659 -353 -173 -725 -273 -1145 -310
-314 -27 -733 18 -1068 116 -378 110 -764 310 -1070 554 -487 388 -862 950
-1036 1548 -142 490 -160 1030 -50 1518 124 556 393 1059 785 1469 507 531
1212 873 1929 936 254 22 419 21 645 -5z"/>
<path d="M3125 4755 c-681 -43 -1128 -138 -1490 -315 -241 -118 -418 -251
-555 -416 -97 -119 -122 -170 -128 -266 -4 -69 -2 -84 22 -133 33 -66 85 -105
171 -131 100 -29 308 -10 467 42 39 13 55 26 87 72 22 31 38 58 36 60 -2 2
-39 -8 -82 -22 -165 -55 -343 -72 -422 -40 -70 28 -89 81 -66 181 36 156 149
281 371 415 311 187 860 342 1394 394 255 25 725 25 880 1 273 -44 574 -137
973 -301 280 -114 492 -187 706 -241 209 -52 332 -67 531 -63 l172 3 37 41
c44 49 71 122 71 187 0 48 -24 117 -40 117 -5 0 -19 -19 -32 -42 -28 -51 -94
-104 -151 -119 -28 -7 -83 -9 -162 -5 -308 16 -503 69 -1055 286 -457 180
-733 257 -1031 289 -162 18 -482 21 -704 6z"/>
<path d="M4990 3989 c-94 -29 -236 -163 -344 -328 -35 -53 -125 -213 -201
-356 -76 -143 -162 -298 -193 -345 -256 -395 -670 -674 -1165 -784 -474 -106
-866 -39 -1191 205 -208 157 -327 357 -329 554 -1 162 51 283 178 411 131 132
250 184 436 192 140 5 196 -5 308 -60 151 -72 286 -233 325 -384 18 -70 21
-180 6 -189 -6 -4 -27 3 -46 14 -39 24 -74 27 -74 9 0 -7 23 -34 52 -59 52
-46 52 -47 38 -75 -26 -51 -117 -132 -183 -163 -74 -35 -189 -55 -262 -45
-104 14 -144 37 -337 191 -65 51 -120 93 -123 93 -3 0 -5 -40 -5 -89 l0 -90
49 -59 c91 -110 200 -159 371 -169 118 -7 250 15 328 53 65 32 152 115 202
192 32 50 37 53 65 47 16 -3 58 -8 92 -12 61 -5 61 -5 107 38 39 35 67 83 168
283 122 244 172 320 266 408 67 63 142 99 142 69 0 -5 -30 -56 -66 -113 -154
-243 -250 -509 -230 -641 l7 -48 37 30 c110 89 103 76 107 181 2 62 10 119 25
165 42 131 141 307 257 455 l43 55 -28 15 c-42 22 -147 19 -205 -8 -61 -27
-172 -134 -235 -226 -27 -39 -84 -132 -127 -206 -106 -184 -188 -303 -221
-325 -16 -10 -51 -20 -78 -23 l-49 -5 7 34 c15 75 18 223 6 278 -22 101 -75
196 -153 276 -116 117 -256 184 -432 207 -349 47 -745 -236 -865 -617 -30 -97
-38 -273 -16 -375 53 -246 248 -470 523 -597 172 -79 426 -114 677 -94 229 19
445 49 541 75 268 73 487 189 705 375 219 187 362 386 552 765 44 89 101 197
126 241 127 223 281 414 367 454 80 38 159 22 202 -39 26 -37 22 -119 -9 -179
-15 -28 -23 -51 -19 -51 15 0 70 69 87 108 33 79 3 221 -56 264 -31 22 -113
31 -160 17z"/>
<path d="M4033 3615 c-97 -21 -175 -69 -252 -151 -103 -110 -186 -291 -212
-462 -10 -65 -9 -83 4 -114 40 -96 151 -95 350 3 74 37 165 95 216 139 14 12
21 26 17 36 -5 14 -10 13 -39 -6 -17 -12 -88 -49 -157 -83 -158 -77 -213 -85
-260 -39 -26 26 -30 38 -30 84 0 96 60 248 138 351 91 119 272 210 354 178 63
-24 88 -132 49 -210 -26 -50 -42 -62 -98 -72 -58 -11 -111 2 -143 36 -20 21
-22 28 -12 50 10 21 18 25 55 25 24 0 49 -6 56 -12 13 -13 27 -1 52 44 15 27
-34 53 -93 52 -61 -2 -111 -33 -143 -88 -60 -103 -4 -176 137 -176 65 0 143
20 186 48 66 43 131 178 117 242 -15 67 -96 128 -183 135 -26 3 -75 -2 -109
-10z"/>
<path d="M4755 3366 c-145 -64 -305 -284 -321 -441 -6 -55 -4 -63 20 -92 56
-67 133 -69 267 -6 134 63 309 193 309 229 0 23 -19 16 -90 -31 -75 -50 -163
-92 -258 -124 -77 -26 -97 -26 -123 0 -32 32 -23 116 21 205 36 73 139 189
161 182 7 -2 17 -19 21 -36 24 -91 138 -69 138 26 0 39 -23 87 -45 96 -26 10
-67 6 -100 -8z"/>
<path d="M5141 3134 c-25 -31 -26 -55 -6 -93 24 -48 68 -54 111 -17 37 31 39
90 5 117 -35 28 -85 25 -110 -7z"/>
</g>
</svg>
